solid OpenSCAD_Model
  facet normal 0.998795 0.0490693 0
    outer loop
      vertex 4.5 0 2.5
      vertex 4.47833 0.441076 -2.5
      vertex 4.47833 0.441076 2.5
    endloop
  endfacet
  facet normal 0.998795 0.0490693 0
    outer loop
      vertex 4.47833 0.441076 -2.5
      vertex 4.5 0 2.5
      vertex 4.5 0 -2.5
    endloop
  endfacet
  facet normal -0.998795 0.0490693 0
    outer loop
      vertex -4.5 0 -2.5
      vertex -4.47833 0.441076 2.5
      vertex -4.47833 0.441076 -2.5
    endloop
  endfacet
  facet normal -0.998795 0.0490693 0
    outer loop
      vertex -4.47833 0.441076 2.5
      vertex -4.5 0 -2.5
      vertex -4.5 0 2.5
    endloop
  endfacet
  facet normal 0.0490693 0.998795 -0
    outer loop
      vertex 0.441076 4.47833 -2.5
      vertex 0 4.5 2.5
      vertex 0.441076 4.47833 2.5
    endloop
  endfacet
  facet normal 0.0490693 0.998795 0
    outer loop
      vertex 0 4.5 2.5
      vertex 0.441076 4.47833 -2.5
      vertex 0 4.5 -2.5
    endloop
  endfacet
  facet normal -0.0490693 -0.998795 0
    outer loop
      vertex -0.441076 -4.47833 -2.5
      vertex 0 -4.5 2.5
      vertex -0.441076 -4.47833 2.5
    endloop
  endfacet
  facet normal -0.0490693 -0.998795 -0
    outer loop
      vertex 0 -4.5 2.5
      vertex -0.441076 -4.47833 -2.5
      vertex 0 -4.5 -2.5
    endloop
  endfacet
  facet normal 0.740951 0.671559 0
    outer loop
      vertex 3.47855 2.85477 2.5
      vertex 3.18198 3.18198 -2.5
      vertex 3.18198 3.18198 2.5
    endloop
  endfacet
  facet normal 0.740951 0.671559 0
    outer loop
      vertex 3.18198 3.18198 -2.5
      vertex 3.47855 2.85477 2.5
      vertex 3.47855 2.85477 -2.5
    endloop
  endfacet
  facet normal -0.671559 0.740951 0
    outer loop
      vertex -2.85477 3.47855 -2.5
      vertex -3.18198 3.18198 2.5
      vertex -2.85477 3.47855 2.5
    endloop
  endfacet
  facet normal -0.671559 0.740951 0
    outer loop
      vertex -3.18198 3.18198 2.5
      vertex -2.85477 3.47855 -2.5
      vertex -3.18198 3.18198 -2.5
    endloop
  endfacet
  facet normal -0.336891 0.941544 0
    outer loop
      vertex -1.30628 4.30623 -2.5
      vertex -1.72207 4.15746 2.5
      vertex -1.30628 4.30623 2.5
    endloop
  endfacet
  facet normal -0.336891 0.941544 0
    outer loop
      vertex -1.72207 4.15746 2.5
      vertex -1.30628 4.30623 -2.5
      vertex -1.72207 4.15746 -2.5
    endloop
  endfacet
  facet normal 0.941544 0.336891 0
    outer loop
      vertex 4.30623 1.30628 2.5
      vertex 4.15746 1.72207 -2.5
      vertex 4.15746 1.72207 2.5
    endloop
  endfacet
  facet normal 0.941544 0.336891 0
    outer loop
      vertex 4.15746 1.72207 -2.5
      vertex 4.30623 1.30628 2.5
      vertex 4.30623 1.30628 -2.5
    endloop
  endfacet
  facet normal 0.427555 0.903989 -0
    outer loop
      vertex 2.12128 3.96865 -2.5
      vertex 1.72207 4.15746 2.5
      vertex 2.12128 3.96865 2.5
    endloop
  endfacet
  facet normal 0.427555 0.903989 0
    outer loop
      vertex 1.72207 4.15746 2.5
      vertex 2.12128 3.96865 -2.5
      vertex 1.72207 4.15746 -2.5
    endloop
  endfacet
  facet normal 0.595699 0.803208 -0
    outer loop
      vertex 2.85477 3.47855 -2.5
      vertex 2.50007 3.74161 2.5
      vertex 2.85477 3.47855 2.5
    endloop
  endfacet
  facet normal 0.595699 0.803208 0
    outer loop
      vertex 2.50007 3.74161 2.5
      vertex 2.85477 3.47855 -2.5
      vertex 2.50007 3.74161 -2.5
    endloop
  endfacet
  facet normal -0.903989 0.427555 0
    outer loop
      vertex -4.15746 1.72207 -2.5
      vertex -3.96865 2.12128 2.5
      vertex -3.96865 2.12128 -2.5
    endloop
  endfacet
  facet normal -0.903989 0.427555 0
    outer loop
      vertex -3.96865 2.12128 2.5
      vertex -4.15746 1.72207 -2.5
      vertex -4.15746 1.72207 2.5
    endloop
  endfacet
  facet normal -0.14673 0.989177 0
    outer loop
      vertex -0.441076 4.47833 -2.5
      vertex -0.877906 4.41353 2.5
      vertex -0.441076 4.47833 2.5
    endloop
  endfacet
  facet normal -0.14673 0.989177 0
    outer loop
      vertex -0.877906 4.41353 2.5
      vertex -0.441076 4.47833 -2.5
      vertex -0.877906 4.41353 -2.5
    endloop
  endfacet
  facet normal 0.941544 -0.336891 0
    outer loop
      vertex 4.15746 -1.72207 2.5
      vertex 4.30623 -1.30628 -2.5
      vertex 4.30623 -1.30628 2.5
    endloop
  endfacet
  facet normal 0.941544 -0.336891 0
    outer loop
      vertex 4.30623 -1.30628 -2.5
      vertex 4.15746 -1.72207 2.5
      vertex 4.15746 -1.72207 -2.5
    endloop
  endfacet
  facet normal 0 0 -1
    outer loop
      vertex 2.75 0 -2.5
      vertex 4.5 0 -2.5
      vertex 4.47833 -0.441076 -2.5
    endloop
  endfacet
  facet normal 0 0 -1
    outer loop
      vertex 2.69716 -0.536498 -2.5
      vertex 4.47833 -0.441076 -2.5
      vertex 4.41353 -0.877906 -2.5
    endloop
  endfacet
  facet normal 0 0 -1
    outer loop
      vertex 4.5 0 -2.5
      vertex 2.75 0 -2.5
      vertex 4.47833 0.441076 -2.5
    endloop
  endfacet
  facet normal 0 0 -1
    outer loop
      vertex 2.69716 -0.536498 -2.5
      vertex 4.41353 -0.877906 -2.5
      vertex 4.30623 -1.30628 -2.5
    endloop
  endfacet
  facet normal 0 0 -1
    outer loop
      vertex 2.69716 0.536498 -2.5
      vertex 4.47833 0.441076 -2.5
      vertex 2.75 0 -2.5
    endloop
  endfacet
  facet normal 0 0 -1
    outer loop
      vertex 2.54067 -1.05238 -2.5
      vertex 4.30623 -1.30628 -2.5
      vertex 4.15746 -1.72207 -2.5
    endloop
  endfacet
  facet normal 0 0 -1
    outer loop
      vertex 4.47833 0.441076 -2.5
      vertex 2.69716 0.536498 -2.5
      vertex 4.41353 0.877906 -2.5
    endloop
  endfacet
  facet normal 0 0 -1
    outer loop
      vertex 2.54067 -1.05238 -2.5
      vertex 4.15746 -1.72207 -2.5
      vertex 3.96865 -2.12128 -2.5
    endloop
  endfacet
  facet normal -0 0 -1
    outer loop
      vertex 4.41353 0.877906 -2.5
      vertex 2.69716 0.536498 -2.5
      vertex 4.30623 1.30628 -2.5
    endloop
  endfacet
  facet normal 0 0 -1
    outer loop
      vertex 2.28654 -1.52782 -2.5
      vertex 3.96865 -2.12128 -2.5
      vertex 3.74161 -2.50007 -2.5
    endloop
  endfacet
  facet normal 0 0 -1
    outer loop
      vertex 2.54067 1.05238 -2.5
      vertex 4.30623 1.30628 -2.5
      vertex 2.69716 0.536498 -2.5
    endloop
  endfacet
  facet normal 0 0 -1
    outer loop
      vertex 2.28654 -1.52782 -2.5
      vertex 3.74161 -2.50007 -2.5
      vertex 3.47855 -2.85477 -2.5
    endloop
  endfacet
  facet normal -0 0 -1
    outer loop
      vertex 4.30623 1.30628 -2.5
      vertex 2.54067 1.05238 -2.5
      vertex 4.15746 1.72207 -2.5
    endloop
  endfacet
  facet normal 0 0 -1
    outer loop
      vertex 1.94454 -1.94454 -2.5
      vertex 3.47855 -2.85477 -2.5
      vertex 3.18198 -3.18198 -2.5
    endloop
  endfacet
  facet normal -0 0 -1
    outer loop
      vertex 4.15746 1.72207 -2.5
      vertex 2.54067 1.05238 -2.5
      vertex 3.96865 2.12128 -2.5
    endloop
  endfacet
  facet normal 0 0 -1
    outer loop
      vertex 1.94454 -1.94454 -2.5
      vertex 3.18198 -3.18198 -2.5
      vertex 2.85477 -3.47855 -2.5
    endloop
  endfacet
  facet normal 0 0 -1
    outer loop
      vertex 2.28654 1.52782 -2.5
      vertex 3.96865 2.12128 -2.5
      vertex 2.54067 1.05238 -2.5
    endloop
  endfacet
  facet normal -0 0 -1
    outer loop
      vertex 3.96865 2.12128 -2.5
      vertex 2.28654 1.52782 -2.5
      vertex 3.74161 2.50007 -2.5
    endloop
  endfacet
  facet normal -0 0 -1
    outer loop
      vertex 4.47833 -0.441076 -2.5
      vertex 2.69716 -0.536498 -2.5
      vertex 2.75 0 -2.5
    endloop
  endfacet
  facet normal 0 0 -1
    outer loop
      vertex 4.30623 -1.30628 -2.5
      vertex 2.54067 -1.05238 -2.5
      vertex 2.69716 -0.536498 -2.5
    endloop
  endfacet
  facet normal 0 0 -1
    outer loop
      vertex 1.52782 -2.28654 -2.5
      vertex 2.85477 -3.47855 -2.5
      vertex 2.50007 -3.74161 -2.5
    endloop
  endfacet
  facet normal 0 0 -1
    outer loop
      vertex 3.96865 -2.12128 -2.5
      vertex 2.28654 -1.52782 -2.5
      vertex 2.54067 -1.05238 -2.5
    endloop
  endfacet
  facet normal 0 0 -1
    outer loop
      vertex 1.52782 -2.28654 -2.5
      vertex 2.50007 -3.74161 -2.5
      vertex 2.12128 -3.96865 -2.5
    endloop
  endfacet
  facet normal 0 0 -1
    outer loop
      vertex 3.47855 -2.85477 -2.5
      vertex 1.94454 -1.94454 -2.5
      vertex 2.28654 -1.52782 -2.5
    endloop
  endfacet
  facet normal 0 0 -1
    outer loop
      vertex 1.05238 -2.54067 -2.5
      vertex 2.12128 -3.96865 -2.5
      vertex 1.72207 -4.15746 -2.5
    endloop
  endfacet
  facet normal 0 0 -1
    outer loop
      vertex 2.85477 -3.47855 -2.5
      vertex 1.52782 -2.28654 -2.5
      vertex 1.94454 -1.94454 -2.5
    endloop
  endfacet
  facet normal 0 0 -1
    outer loop
      vertex 1.05238 -2.54067 -2.5
      vertex 1.72207 -4.15746 -2.5
      vertex 1.30628 -4.30623 -2.5
    endloop
  endfacet
  facet normal 0 0 -1
    outer loop
      vertex 2.12128 -3.96865 -2.5
      vertex 1.05238 -2.54067 -2.5
      vertex 1.52782 -2.28654 -2.5
    endloop
  endfacet
  facet normal 0 0 -1
    outer loop
      vertex 0.536498 -2.69716 -2.5
      vertex 1.30628 -4.30623 -2.5
      vertex 0.877906 -4.41353 -2.5
    endloop
  endfacet
  facet normal 0 0 -1
    outer loop
      vertex 1.30628 -4.30623 -2.5
      vertex 0.536498 -2.69716 -2.5
      vertex 1.05238 -2.54067 -2.5
    endloop
  endfacet
  facet normal 0 0 -1
    outer loop
      vertex 0.441076 -4.47833 -2.5
      vertex 0.536498 -2.69716 -2.5
      vertex 0.877906 -4.41353 -2.5
    endloop
  endfacet
  facet normal 0 0 -1
    outer loop
      vertex 0 -2.75 -2.5
      vertex 0.441076 -4.47833 -2.5
      vertex 0 -4.5 -2.5
    endloop
  endfacet
  facet normal 0 0 -1
    outer loop
      vertex 0.441076 -4.47833 -2.5
      vertex 0 -2.75 -2.5
      vertex 0.536498 -2.69716 -2.5
    endloop
  endfacet
  facet normal 0 0 -1
    outer loop
      vertex -0.441076 -4.47833 -2.5
      vertex 0 -2.75 -2.5
      vertex 0 -4.5 -2.5
    endloop
  endfacet
  facet normal 0 0 -1
    outer loop
      vertex -0.441076 -4.47833 -2.5
      vertex -0.536498 -2.69716 -2.5
      vertex 0 -2.75 -2.5
    endloop
  endfacet
  facet normal 0 0 -1
    outer loop
      vertex -0.877906 -4.41353 -2.5
      vertex -0.536498 -2.69716 -2.5
      vertex -0.441076 -4.47833 -2.5
    endloop
  endfacet
  facet normal 0 0 -1
    outer loop
      vertex -1.30628 -4.30623 -2.5
      vertex -0.536498 -2.69716 -2.5
      vertex -0.877906 -4.41353 -2.5
    endloop
  endfacet
  facet normal -0 0 -1
    outer loop
      vertex -0.536498 -2.69716 -2.5
      vertex -1.30628 -4.30623 -2.5
      vertex -1.05238 -2.54067 -2.5
    endloop
  endfacet
  facet normal 0 0 -1
    outer loop
      vertex -1.72207 -4.15746 -2.5
      vertex -1.05238 -2.54067 -2.5
      vertex -1.30628 -4.30623 -2.5
    endloop
  endfacet
  facet normal 0 0 -1
    outer loop
      vertex -2.12128 -3.96865 -2.5
      vertex -1.05238 -2.54067 -2.5
      vertex -1.72207 -4.15746 -2.5
    endloop
  endfacet
  facet normal -0 0 -1
    outer loop
      vertex -1.05238 -2.54067 -2.5
      vertex -2.12128 -3.96865 -2.5
      vertex -1.52782 -2.28654 -2.5
    endloop
  endfacet
  facet normal 0 0 -1
    outer loop
      vertex -2.50007 -3.74161 -2.5
      vertex -1.52782 -2.28654 -2.5
      vertex -2.12128 -3.96865 -2.5
    endloop
  endfacet
  facet normal 0 0 -1
    outer loop
      vertex -2.85477 -3.47855 -2.5
      vertex -1.52782 -2.28654 -2.5
      vertex -2.50007 -3.74161 -2.5
    endloop
  endfacet
  facet normal -0 0 -1
    outer loop
      vertex -1.52782 -2.28654 -2.5
      vertex -2.85477 -3.47855 -2.5
      vertex -1.94454 -1.94454 -2.5
    endloop
  endfacet
  facet normal 0 0 -1
    outer loop
      vertex -3.18198 -3.18198 -2.5
      vertex -1.94454 -1.94454 -2.5
      vertex -2.85477 -3.47855 -2.5
    endloop
  endfacet
  facet normal 0 0 -1
    outer loop
      vertex -3.47855 -2.85477 -2.5
      vertex -1.94454 -1.94454 -2.5
      vertex -3.18198 -3.18198 -2.5
    endloop
  endfacet
  facet normal -0 0 -1
    outer loop
      vertex -1.94454 -1.94454 -2.5
      vertex -3.47855 -2.85477 -2.5
      vertex -2.28654 -1.52782 -2.5
    endloop
  endfacet
  facet normal 0 0 -1
    outer loop
      vertex -3.74161 -2.50007 -2.5
      vertex -2.28654 -1.52782 -2.5
      vertex -3.47855 -2.85477 -2.5
    endloop
  endfacet
  facet normal -0 0 -1
    outer loop
      vertex 3.74161 2.50007 -2.5
      vertex 2.28654 1.52782 -2.5
      vertex 3.47855 2.85477 -2.5
    endloop
  endfacet
  facet normal 0 0 -1
    outer loop
      vertex 1.94454 1.94454 -2.5
      vertex 3.47855 2.85477 -2.5
      vertex 2.28654 1.52782 -2.5
    endloop
  endfacet
  facet normal -0 0 -1
    outer loop
      vertex 3.47855 2.85477 -2.5
      vertex 1.94454 1.94454 -2.5
      vertex 3.18198 3.18198 -2.5
    endloop
  endfacet
  facet normal -0 0 -1
    outer loop
      vertex 3.18198 3.18198 -2.5
      vertex 1.94454 1.94454 -2.5
      vertex 2.85477 3.47855 -2.5
    endloop
  endfacet
  facet normal 0 0 -1
    outer loop
      vertex 1.52782 2.28654 -2.5
      vertex 2.85477 3.47855 -2.5
      vertex 1.94454 1.94454 -2.5
    endloop
  endfacet
  facet normal -0 0 -1
    outer loop
      vertex 2.85477 3.47855 -2.5
      vertex 1.52782 2.28654 -2.5
      vertex 2.50007 3.74161 -2.5
    endloop
  endfacet
  facet normal -0 0 -1
    outer loop
      vertex 2.50007 3.74161 -2.5
      vertex 1.52782 2.28654 -2.5
      vertex 2.12128 3.96865 -2.5
    endloop
  endfacet
  facet normal 0 0 -1
    outer loop
      vertex 1.05238 2.54067 -2.5
      vertex 2.12128 3.96865 -2.5
      vertex 1.52782 2.28654 -2.5
    endloop
  endfacet
  facet normal -0 0 -1
    outer loop
      vertex 2.12128 3.96865 -2.5
      vertex 1.05238 2.54067 -2.5
      vertex 1.72207 4.15746 -2.5
    endloop
  endfacet
  facet normal -0 0 -1
    outer loop
      vertex 1.72207 4.15746 -2.5
      vertex 1.05238 2.54067 -2.5
      vertex 1.30628 4.30623 -2.5
    endloop
  endfacet
  facet normal 0 0 -1
    outer loop
      vertex 0.536498 2.69716 -2.5
      vertex 1.30628 4.30623 -2.5
      vertex 1.05238 2.54067 -2.5
    endloop
  endfacet
  facet normal -0 0 -1
    outer loop
      vertex 1.30628 4.30623 -2.5
      vertex 0.536498 2.69716 -2.5
      vertex 0.877906 4.41353 -2.5
    endloop
  endfacet
  facet normal 0 0 -1
    outer loop
      vertex 0.536498 2.69716 -2.5
      vertex 0.441076 4.47833 -2.5
      vertex 0.877906 4.41353 -2.5
    endloop
  endfacet
  facet normal 0 0 -1
    outer loop
      vertex 0 2.75 -2.5
      vertex 0.441076 4.47833 -2.5
      vertex 0.536498 2.69716 -2.5
    endloop
  endfacet
  facet normal 0 0 -1
    outer loop
      vertex 0 2.75 -2.5
      vertex 0 4.5 -2.5
      vertex 0.441076 4.47833 -2.5
    endloop
  endfacet
  facet normal 0 0 -1
    outer loop
      vertex 0 2.75 -2.5
      vertex -0.441076 4.47833 -2.5
      vertex 0 4.5 -2.5
    endloop
  endfacet
  facet normal 0 0 -1
    outer loop
      vertex -0.536498 2.69716 -2.5
      vertex -0.441076 4.47833 -2.5
      vertex 0 2.75 -2.5
    endloop
  endfacet
  facet normal 0 0 -1
    outer loop
      vertex -0.536498 2.69716 -2.5
      vertex -0.877906 4.41353 -2.5
      vertex -0.441076 4.47833 -2.5
    endloop
  endfacet
  facet normal 0 0 -1
    outer loop
      vertex -1.30628 4.30623 -2.5
      vertex -0.536498 2.69716 -2.5
      vertex -1.05238 2.54067 -2.5
    endloop
  endfacet
  facet normal 0 0 -1
    outer loop
      vertex -0.536498 2.69716 -2.5
      vertex -1.30628 4.30623 -2.5
      vertex -0.877906 4.41353 -2.5
    endloop
  endfacet
  facet normal 0 0 -1
    outer loop
      vertex -2.12128 3.96865 -2.5
      vertex -1.05238 2.54067 -2.5
      vertex -1.52782 2.28654 -2.5
    endloop
  endfacet
  facet normal 0 0 -1
    outer loop
      vertex -1.05238 2.54067 -2.5
      vertex -1.72207 4.15746 -2.5
      vertex -1.30628 4.30623 -2.5
    endloop
  endfacet
  facet normal 0 0 -1
    outer loop
      vertex -2.85477 3.47855 -2.5
      vertex -1.52782 2.28654 -2.5
      vertex -1.94454 1.94454 -2.5
    endloop
  endfacet
  facet normal 0 0 -1
    outer loop
      vertex -1.05238 2.54067 -2.5
      vertex -2.12128 3.96865 -2.5
      vertex -1.72207 4.15746 -2.5
    endloop
  endfacet
  facet normal 0 0 -1
    outer loop
      vertex -3.47855 2.85477 -2.5
      vertex -1.94454 1.94454 -2.5
      vertex -2.28654 1.52782 -2.5
    endloop
  endfacet
  facet normal 0 0 -1
    outer loop
      vertex -1.52782 2.28654 -2.5
      vertex -2.50007 3.74161 -2.5
      vertex -2.12128 3.96865 -2.5
    endloop
  endfacet
  facet normal 0 0 -1
    outer loop
      vertex -3.96865 2.12128 -2.5
      vertex -2.28654 1.52782 -2.5
      vertex -2.54067 1.05238 -2.5
    endloop
  endfacet
  facet normal 0 0 -1
    outer loop
      vertex -4.30623 1.30628 -2.5
      vertex -2.54067 1.05238 -2.5
      vertex -2.69716 0.536498 -2.5
    endloop
  endfacet
  facet normal 0 0 -1
    outer loop
      vertex -4.47833 0.441076 -2.5
      vertex -2.69716 0.536498 -2.5
      vertex -2.75 0 -2.5
    endloop
  endfacet
  facet normal 0 0 -1
    outer loop
      vertex -1.52782 2.28654 -2.5
      vertex -2.85477 3.47855 -2.5
      vertex -2.50007 3.74161 -2.5
    endloop
  endfacet
  facet normal 0 0 -1
    outer loop
      vertex -3.96865 -2.12128 -2.5
      vertex -2.28654 -1.52782 -2.5
      vertex -3.74161 -2.50007 -2.5
    endloop
  endfacet
  facet normal -0 0 -1
    outer loop
      vertex -2.28654 -1.52782 -2.5
      vertex -3.96865 -2.12128 -2.5
      vertex -2.54067 -1.05238 -2.5
    endloop
  endfacet
  facet normal 0 0 -1
    outer loop
      vertex -1.94454 1.94454 -2.5
      vertex -3.18198 3.18198 -2.5
      vertex -2.85477 3.47855 -2.5
    endloop
  endfacet
  facet normal 0 0 -1
    outer loop
      vertex -4.15746 -1.72207 -2.5
      vertex -2.54067 -1.05238 -2.5
      vertex -3.96865 -2.12128 -2.5
    endloop
  endfacet
  facet normal 0 0 -1
    outer loop
      vertex -1.94454 1.94454 -2.5
      vertex -3.47855 2.85477 -2.5
      vertex -3.18198 3.18198 -2.5
    endloop
  endfacet
  facet normal 0 0 -1
    outer loop
      vertex -4.30623 -1.30628 -2.5
      vertex -2.54067 -1.05238 -2.5
      vertex -4.15746 -1.72207 -2.5
    endloop
  endfacet
  facet normal 0 0 -1
    outer loop
      vertex -2.28654 1.52782 -2.5
      vertex -3.74161 2.50007 -2.5
      vertex -3.47855 2.85477 -2.5
    endloop
  endfacet
  facet normal -0 0 -1
    outer loop
      vertex -2.54067 -1.05238 -2.5
      vertex -4.30623 -1.30628 -2.5
      vertex -2.69716 -0.536498 -2.5
    endloop
  endfacet
  facet normal 0 0 -1
    outer loop
      vertex -2.28654 1.52782 -2.5
      vertex -3.96865 2.12128 -2.5
      vertex -3.74161 2.50007 -2.5
    endloop
  endfacet
  facet normal 0 0 -1
    outer loop
      vertex -4.41353 -0.877906 -2.5
      vertex -2.69716 -0.536498 -2.5
      vertex -4.30623 -1.30628 -2.5
    endloop
  endfacet
  facet normal 0 0 -1
    outer loop
      vertex -2.54067 1.05238 -2.5
      vertex -4.15746 1.72207 -2.5
      vertex -3.96865 2.12128 -2.5
    endloop
  endfacet
  facet normal 0 0 -1
    outer loop
      vertex -4.47833 -0.441076 -2.5
      vertex -2.69716 -0.536498 -2.5
      vertex -4.41353 -0.877906 -2.5
    endloop
  endfacet
  facet normal 0 0 -1
    outer loop
      vertex -2.54067 1.05238 -2.5
      vertex -4.30623 1.30628 -2.5
      vertex -4.15746 1.72207 -2.5
    endloop
  endfacet
  facet normal 0 0 -1
    outer loop
      vertex -2.69716 -0.536498 -2.5
      vertex -4.47833 -0.441076 -2.5
      vertex -2.75 0 -2.5
    endloop
  endfacet
  facet normal 0 0 -1
    outer loop
      vertex -2.69716 0.536498 -2.5
      vertex -4.41353 0.877906 -2.5
      vertex -4.30623 1.30628 -2.5
    endloop
  endfacet
  facet normal 0 0 -1
    outer loop
      vertex -4.5 0 -2.5
      vertex -2.75 0 -2.5
      vertex -4.47833 -0.441076 -2.5
    endloop
  endfacet
  facet normal -0 0 -1
    outer loop
      vertex -2.69716 0.536498 -2.5
      vertex -4.47833 0.441076 -2.5
      vertex -4.41353 0.877906 -2.5
    endloop
  endfacet
  facet normal 0 0 -1
    outer loop
      vertex -2.75 0 -2.5
      vertex -4.5 0 -2.5
      vertex -4.47833 0.441076 -2.5
    endloop
  endfacet
  facet normal 0.970031 0.242979 0
    outer loop
      vertex 4.41353 0.877906 2.5
      vertex 4.30623 1.30628 -2.5
      vertex 4.30623 1.30628 2.5
    endloop
  endfacet
  facet normal 0.970031 0.242979 0
    outer loop
      vertex 4.30623 1.30628 -2.5
      vertex 4.41353 0.877906 2.5
      vertex 4.41353 0.877906 -2.5
    endloop
  endfacet
  facet normal 0.989177 0.14673 0
    outer loop
      vertex 4.47833 0.441076 2.5
      vertex 4.41353 0.877906 -2.5
      vertex 4.41353 0.877906 2.5
    endloop
  endfacet
  facet normal 0.989177 0.14673 0
    outer loop
      vertex 4.41353 0.877906 -2.5
      vertex 4.47833 0.441076 2.5
      vertex 4.47833 0.441076 -2.5
    endloop
  endfacet
  facet normal 0.857729 0.514103 0
    outer loop
      vertex 3.96865 2.12128 2.5
      vertex 3.74161 2.50007 -2.5
      vertex 3.74161 2.50007 2.5
    endloop
  endfacet
  facet normal 0.857729 0.514103 0
    outer loop
      vertex 3.74161 2.50007 -2.5
      vertex 3.96865 2.12128 2.5
      vertex 3.96865 2.12128 -2.5
    endloop
  endfacet
  facet normal 0.803208 0.595699 0
    outer loop
      vertex 3.74161 2.50007 2.5
      vertex 3.47855 2.85477 -2.5
      vertex 3.47855 2.85477 2.5
    endloop
  endfacet
  facet normal 0.803208 0.595699 0
    outer loop
      vertex 3.47855 2.85477 -2.5
      vertex 3.74161 2.50007 2.5
      vertex 3.74161 2.50007 -2.5
    endloop
  endfacet
  facet normal 0.903989 0.427555 0
    outer loop
      vertex 4.15746 1.72207 2.5
      vertex 3.96865 2.12128 -2.5
      vertex 3.96865 2.12128 2.5
    endloop
  endfacet
  facet normal 0.903989 0.427555 0
    outer loop
      vertex 3.96865 2.12128 -2.5
      vertex 4.15746 1.72207 2.5
      vertex 4.15746 1.72207 -2.5
    endloop
  endfacet
  facet normal 0.242979 0.970031 -0
    outer loop
      vertex 1.30628 4.30623 -2.5
      vertex 0.877906 4.41353 2.5
      vertex 1.30628 4.30623 2.5
    endloop
  endfacet
  facet normal 0.242979 0.970031 0
    outer loop
      vertex 0.877906 4.41353 2.5
      vertex 1.30628 4.30623 -2.5
      vertex 0.877906 4.41353 -2.5
    endloop
  endfacet
  facet normal 0.336891 0.941544 -0
    outer loop
      vertex 1.72207 4.15746 -2.5
      vertex 1.30628 4.30623 2.5
      vertex 1.72207 4.15746 2.5
    endloop
  endfacet
  facet normal 0.336891 0.941544 0
    outer loop
      vertex 1.30628 4.30623 2.5
      vertex 1.72207 4.15746 -2.5
      vertex 1.30628 4.30623 -2.5
    endloop
  endfacet
  facet normal 0.14673 0.989177 -0
    outer loop
      vertex 0.877906 4.41353 -2.5
      vertex 0.441076 4.47833 2.5
      vertex 0.877906 4.41353 2.5
    endloop
  endfacet
  facet normal 0.14673 0.989177 0
    outer loop
      vertex 0.441076 4.47833 2.5
      vertex 0.877906 4.41353 -2.5
      vertex 0.441076 4.47833 -2.5
    endloop
  endfacet
  facet normal 0.514103 0.857729 -0
    outer loop
      vertex 2.50007 3.74161 -2.5
      vertex 2.12128 3.96865 2.5
      vertex 2.50007 3.74161 2.5
    endloop
  endfacet
  facet normal 0.514103 0.857729 0
    outer loop
      vertex 2.12128 3.96865 2.5
      vertex 2.50007 3.74161 -2.5
      vertex 2.12128 3.96865 -2.5
    endloop
  endfacet
  facet normal 0.671559 0.740951 -0
    outer loop
      vertex 3.18198 3.18198 -2.5
      vertex 2.85477 3.47855 2.5
      vertex 3.18198 3.18198 2.5
    endloop
  endfacet
  facet normal 0.671559 0.740951 0
    outer loop
      vertex 2.85477 3.47855 2.5
      vertex 3.18198 3.18198 -2.5
      vertex 2.85477 3.47855 -2.5
    endloop
  endfacet
  facet normal -0.970031 0.242979 0
    outer loop
      vertex -4.41353 0.877906 -2.5
      vertex -4.30623 1.30628 2.5
      vertex -4.30623 1.30628 -2.5
    endloop
  endfacet
  facet normal -0.970031 0.242979 0
    outer loop
      vertex -4.30623 1.30628 2.5
      vertex -4.41353 0.877906 -2.5
      vertex -4.41353 0.877906 2.5
    endloop
  endfacet
  facet normal -0.803208 0.595699 0
    outer loop
      vertex -3.74161 2.50007 -2.5
      vertex -3.47855 2.85477 2.5
      vertex -3.47855 2.85477 -2.5
    endloop
  endfacet
  facet normal -0.803208 0.595699 0
    outer loop
      vertex -3.47855 2.85477 2.5
      vertex -3.74161 2.50007 -2.5
      vertex -3.74161 2.50007 2.5
    endloop
  endfacet
  facet normal -0.740951 0.671559 0
    outer loop
      vertex -3.47855 2.85477 -2.5
      vertex -3.18198 3.18198 2.5
      vertex -3.18198 3.18198 -2.5
    endloop
  endfacet
  facet normal -0.740951 0.671559 0
    outer loop
      vertex -3.18198 3.18198 2.5
      vertex -3.47855 2.85477 -2.5
      vertex -3.47855 2.85477 2.5
    endloop
  endfacet
  facet normal -0.857729 0.514103 0
    outer loop
      vertex -3.96865 2.12128 -2.5
      vertex -3.74161 2.50007 2.5
      vertex -3.74161 2.50007 -2.5
    endloop
  endfacet
  facet normal -0.857729 0.514103 0
    outer loop
      vertex -3.74161 2.50007 2.5
      vertex -3.96865 2.12128 -2.5
      vertex -3.96865 2.12128 2.5
    endloop
  endfacet
  facet normal -0.941544 0.336891 0
    outer loop
      vertex -4.30623 1.30628 -2.5
      vertex -4.15746 1.72207 2.5
      vertex -4.15746 1.72207 -2.5
    endloop
  endfacet
  facet normal -0.941544 0.336891 0
    outer loop
      vertex -4.15746 1.72207 2.5
      vertex -4.30623 1.30628 -2.5
      vertex -4.30623 1.30628 2.5
    endloop
  endfacet
  facet normal -0.989177 0.14673 0
    outer loop
      vertex -4.47833 0.441076 -2.5
      vertex -4.41353 0.877906 2.5
      vertex -4.41353 0.877906 -2.5
    endloop
  endfacet
  facet normal -0.989177 0.14673 0
    outer loop
      vertex -4.41353 0.877906 2.5
      vertex -4.47833 0.441076 -2.5
      vertex -4.47833 0.441076 2.5
    endloop
  endfacet
  facet normal 0 0 1
    outer loop
      vertex 2.75 0 2.5
      vertex 4.5 0 2.5
      vertex 4.47833 0.441076 2.5
    endloop
  endfacet
  facet normal -0 0 1
    outer loop
      vertex 2.69716 0.536498 2.5
      vertex 4.47833 0.441076 2.5
      vertex 4.41353 0.877906 2.5
    endloop
  endfacet
  facet normal 0 0 1
    outer loop
      vertex 4.5 0 2.5
      vertex 2.75 0 2.5
      vertex 4.47833 -0.441076 2.5
    endloop
  endfacet
  facet normal 0 0 1
    outer loop
      vertex 2.69716 0.536498 2.5
      vertex 4.41353 0.877906 2.5
      vertex 4.30623 1.30628 2.5
    endloop
  endfacet
  facet normal 0 0 1
    outer loop
      vertex 2.69716 -0.536498 2.5
      vertex 4.47833 -0.441076 2.5
      vertex 2.75 0 2.5
    endloop
  endfacet
  facet normal 0 0 1
    outer loop
      vertex 2.54067 1.05238 2.5
      vertex 4.30623 1.30628 2.5
      vertex 4.15746 1.72207 2.5
    endloop
  endfacet
  facet normal 0 0 1
    outer loop
      vertex 4.47833 -0.441076 2.5
      vertex 2.69716 -0.536498 2.5
      vertex 4.41353 -0.877906 2.5
    endloop
  endfacet
  facet normal 0 0 1
    outer loop
      vertex 2.54067 1.05238 2.5
      vertex 4.15746 1.72207 2.5
      vertex 3.96865 2.12128 2.5
    endloop
  endfacet
  facet normal 0 0 1
    outer loop
      vertex 4.41353 -0.877906 2.5
      vertex 2.69716 -0.536498 2.5
      vertex 4.30623 -1.30628 2.5
    endloop
  endfacet
  facet normal 0 0 1
    outer loop
      vertex 2.28654 1.52782 2.5
      vertex 3.96865 2.12128 2.5
      vertex 3.74161 2.50007 2.5
    endloop
  endfacet
  facet normal -0 0 1
    outer loop
      vertex 2.54067 -1.05238 2.5
      vertex 4.30623 -1.30628 2.5
      vertex 2.69716 -0.536498 2.5
    endloop
  endfacet
  facet normal 0 0 1
    outer loop
      vertex 2.28654 1.52782 2.5
      vertex 3.74161 2.50007 2.5
      vertex 3.47855 2.85477 2.5
    endloop
  endfacet
  facet normal 0 0 1
    outer loop
      vertex 4.30623 -1.30628 2.5
      vertex 2.54067 -1.05238 2.5
      vertex 4.15746 -1.72207 2.5
    endloop
  endfacet
  facet normal 0 0 1
    outer loop
      vertex 1.94454 1.94454 2.5
      vertex 3.47855 2.85477 2.5
      vertex 3.18198 3.18198 2.5
    endloop
  endfacet
  facet normal 0 0 1
    outer loop
      vertex 4.15746 -1.72207 2.5
      vertex 2.54067 -1.05238 2.5
      vertex 3.96865 -2.12128 2.5
    endloop
  endfacet
  facet normal 0 0 1
    outer loop
      vertex 1.94454 1.94454 2.5
      vertex 3.18198 3.18198 2.5
      vertex 2.85477 3.47855 2.5
    endloop
  endfacet
  facet normal -0 0 1
    outer loop
      vertex 2.28654 -1.52782 2.5
      vertex 3.96865 -2.12128 2.5
      vertex 2.54067 -1.05238 2.5
    endloop
  endfacet
  facet normal 0 0 1
    outer loop
      vertex 3.96865 -2.12128 2.5
      vertex 2.28654 -1.52782 2.5
      vertex 3.74161 -2.50007 2.5
    endloop
  endfacet
  facet normal 0 0 1
    outer loop
      vertex 4.47833 0.441076 2.5
      vertex 2.69716 0.536498 2.5
      vertex 2.75 0 2.5
    endloop
  endfacet
  facet normal 0 0 1
    outer loop
      vertex 4.30623 1.30628 2.5
      vertex 2.54067 1.05238 2.5
      vertex 2.69716 0.536498 2.5
    endloop
  endfacet
  facet normal 0 0 1
    outer loop
      vertex 1.52782 2.28654 2.5
      vertex 2.85477 3.47855 2.5
      vertex 2.50007 3.74161 2.5
    endloop
  endfacet
  facet normal 0 0 1
    outer loop
      vertex 3.96865 2.12128 2.5
      vertex 2.28654 1.52782 2.5
      vertex 2.54067 1.05238 2.5
    endloop
  endfacet
  facet normal 0 0 1
    outer loop
      vertex 1.52782 2.28654 2.5
      vertex 2.50007 3.74161 2.5
      vertex 2.12128 3.96865 2.5
    endloop
  endfacet
  facet normal 0 0 1
    outer loop
      vertex 3.47855 2.85477 2.5
      vertex 1.94454 1.94454 2.5
      vertex 2.28654 1.52782 2.5
    endloop
  endfacet
  facet normal 0 0 1
    outer loop
      vertex 1.05238 2.54067 2.5
      vertex 2.12128 3.96865 2.5
      vertex 1.72207 4.15746 2.5
    endloop
  endfacet
  facet normal 0 0 1
    outer loop
      vertex 2.85477 3.47855 2.5
      vertex 1.52782 2.28654 2.5
      vertex 1.94454 1.94454 2.5
    endloop
  endfacet
  facet normal 0 0 1
    outer loop
      vertex 1.05238 2.54067 2.5
      vertex 1.72207 4.15746 2.5
      vertex 1.30628 4.30623 2.5
    endloop
  endfacet
  facet normal 0 0 1
    outer loop
      vertex 2.12128 3.96865 2.5
      vertex 1.05238 2.54067 2.5
      vertex 1.52782 2.28654 2.5
    endloop
  endfacet
  facet normal 0 0 1
    outer loop
      vertex 0.536498 2.69716 2.5
      vertex 1.30628 4.30623 2.5
      vertex 0.877906 4.41353 2.5
    endloop
  endfacet
  facet normal 0 0 1
    outer loop
      vertex 1.30628 4.30623 2.5
      vertex 0.536498 2.69716 2.5
      vertex 1.05238 2.54067 2.5
    endloop
  endfacet
  facet normal 0 0 1
    outer loop
      vertex 0.441076 4.47833 2.5
      vertex 0.536498 2.69716 2.5
      vertex 0.877906 4.41353 2.5
    endloop
  endfacet
  facet normal 0 0 1
    outer loop
      vertex 0 2.75 2.5
      vertex 0.441076 4.47833 2.5
      vertex 0 4.5 2.5
    endloop
  endfacet
  facet normal 0 0 1
    outer loop
      vertex 0.441076 4.47833 2.5
      vertex 0 2.75 2.5
      vertex 0.536498 2.69716 2.5
    endloop
  endfacet
  facet normal -0 0 1
    outer loop
      vertex -0.441076 4.47833 2.5
      vertex 0 2.75 2.5
      vertex 0 4.5 2.5
    endloop
  endfacet
  facet normal 0 0 1
    outer loop
      vertex -0.441076 4.47833 2.5
      vertex -0.536498 2.69716 2.5
      vertex 0 2.75 2.5
    endloop
  endfacet
  facet normal -0 0 1
    outer loop
      vertex -0.877906 4.41353 2.5
      vertex -0.536498 2.69716 2.5
      vertex -0.441076 4.47833 2.5
    endloop
  endfacet
  facet normal -0 0 1
    outer loop
      vertex -1.30628 4.30623 2.5
      vertex -0.536498 2.69716 2.5
      vertex -0.877906 4.41353 2.5
    endloop
  endfacet
  facet normal 0 0 1
    outer loop
      vertex -0.536498 2.69716 2.5
      vertex -1.30628 4.30623 2.5
      vertex -1.05238 2.54067 2.5
    endloop
  endfacet
  facet normal -0 0 1
    outer loop
      vertex -1.72207 4.15746 2.5
      vertex -1.05238 2.54067 2.5
      vertex -1.30628 4.30623 2.5
    endloop
  endfacet
  facet normal -0 0 1
    outer loop
      vertex -2.12128 3.96865 2.5
      vertex -1.05238 2.54067 2.5
      vertex -1.72207 4.15746 2.5
    endloop
  endfacet
  facet normal 0 0 1
    outer loop
      vertex -1.05238 2.54067 2.5
      vertex -2.12128 3.96865 2.5
      vertex -1.52782 2.28654 2.5
    endloop
  endfacet
  facet normal -0 0 1
    outer loop
      vertex -2.50007 3.74161 2.5
      vertex -1.52782 2.28654 2.5
      vertex -2.12128 3.96865 2.5
    endloop
  endfacet
  facet normal -0 0 1
    outer loop
      vertex -2.85477 3.47855 2.5
      vertex -1.52782 2.28654 2.5
      vertex -2.50007 3.74161 2.5
    endloop
  endfacet
  facet normal 0 0 1
    outer loop
      vertex -1.52782 2.28654 2.5
      vertex -2.85477 3.47855 2.5
      vertex -1.94454 1.94454 2.5
    endloop
  endfacet
  facet normal -0 0 1
    outer loop
      vertex -3.18198 3.18198 2.5
      vertex -1.94454 1.94454 2.5
      vertex -2.85477 3.47855 2.5
    endloop
  endfacet
  facet normal -0 0 1
    outer loop
      vertex -3.47855 2.85477 2.5
      vertex -1.94454 1.94454 2.5
      vertex -3.18198 3.18198 2.5
    endloop
  endfacet
  facet normal 0 0 1
    outer loop
      vertex -1.94454 1.94454 2.5
      vertex -3.47855 2.85477 2.5
      vertex -2.28654 1.52782 2.5
    endloop
  endfacet
  facet normal -0 0 1
    outer loop
      vertex -3.74161 2.50007 2.5
      vertex -2.28654 1.52782 2.5
      vertex -3.47855 2.85477 2.5
    endloop
  endfacet
  facet normal 0 0 1
    outer loop
      vertex 3.74161 -2.50007 2.5
      vertex 2.28654 -1.52782 2.5
      vertex 3.47855 -2.85477 2.5
    endloop
  endfacet
  facet normal -0 0 1
    outer loop
      vertex 1.94454 -1.94454 2.5
      vertex 3.47855 -2.85477 2.5
      vertex 2.28654 -1.52782 2.5
    endloop
  endfacet
  facet normal 0 0 1
    outer loop
      vertex 3.47855 -2.85477 2.5
      vertex 1.94454 -1.94454 2.5
      vertex 3.18198 -3.18198 2.5
    endloop
  endfacet
  facet normal 0 0 1
    outer loop
      vertex 3.18198 -3.18198 2.5
      vertex 1.94454 -1.94454 2.5
      vertex 2.85477 -3.47855 2.5
    endloop
  endfacet
  facet normal -0 0 1
    outer loop
      vertex 1.52782 -2.28654 2.5
      vertex 2.85477 -3.47855 2.5
      vertex 1.94454 -1.94454 2.5
    endloop
  endfacet
  facet normal 0 0 1
    outer loop
      vertex 2.85477 -3.47855 2.5
      vertex 1.52782 -2.28654 2.5
      vertex 2.50007 -3.74161 2.5
    endloop
  endfacet
  facet normal 0 0 1
    outer loop
      vertex 2.50007 -3.74161 2.5
      vertex 1.52782 -2.28654 2.5
      vertex 2.12128 -3.96865 2.5
    endloop
  endfacet
  facet normal -0 0 1
    outer loop
      vertex 1.05238 -2.54067 2.5
      vertex 2.12128 -3.96865 2.5
      vertex 1.52782 -2.28654 2.5
    endloop
  endfacet
  facet normal 0 0 1
    outer loop
      vertex 2.12128 -3.96865 2.5
      vertex 1.05238 -2.54067 2.5
      vertex 1.72207 -4.15746 2.5
    endloop
  endfacet
  facet normal 0 0 1
    outer loop
      vertex 1.72207 -4.15746 2.5
      vertex 1.05238 -2.54067 2.5
      vertex 1.30628 -4.30623 2.5
    endloop
  endfacet
  facet normal -0 0 1
    outer loop
      vertex 0.536498 -2.69716 2.5
      vertex 1.30628 -4.30623 2.5
      vertex 1.05238 -2.54067 2.5
    endloop
  endfacet
  facet normal 0 0 1
    outer loop
      vertex 1.30628 -4.30623 2.5
      vertex 0.536498 -2.69716 2.5
      vertex 0.877906 -4.41353 2.5
    endloop
  endfacet
  facet normal 0 0 1
    outer loop
      vertex 0.536498 -2.69716 2.5
      vertex 0.441076 -4.47833 2.5
      vertex 0.877906 -4.41353 2.5
    endloop
  endfacet
  facet normal -0 0 1
    outer loop
      vertex 0 -2.75 2.5
      vertex 0.441076 -4.47833 2.5
      vertex 0.536498 -2.69716 2.5
    endloop
  endfacet
  facet normal 0 0 1
    outer loop
      vertex 0 -2.75 2.5
      vertex 0 -4.5 2.5
      vertex 0.441076 -4.47833 2.5
    endloop
  endfacet
  facet normal 0 0 1
    outer loop
      vertex 0 -2.75 2.5
      vertex -0.441076 -4.47833 2.5
      vertex 0 -4.5 2.5
    endloop
  endfacet
  facet normal 0 0 1
    outer loop
      vertex -0.536498 -2.69716 2.5
      vertex -0.441076 -4.47833 2.5
      vertex 0 -2.75 2.5
    endloop
  endfacet
  facet normal 0 0 1
    outer loop
      vertex -0.536498 -2.69716 2.5
      vertex -0.877906 -4.41353 2.5
      vertex -0.441076 -4.47833 2.5
    endloop
  endfacet
  facet normal 0 0 1
    outer loop
      vertex -1.30628 -4.30623 2.5
      vertex -0.536498 -2.69716 2.5
      vertex -1.05238 -2.54067 2.5
    endloop
  endfacet
  facet normal 0 0 1
    outer loop
      vertex -0.536498 -2.69716 2.5
      vertex -1.30628 -4.30623 2.5
      vertex -0.877906 -4.41353 2.5
    endloop
  endfacet
  facet normal 0 0 1
    outer loop
      vertex -2.12128 -3.96865 2.5
      vertex -1.05238 -2.54067 2.5
      vertex -1.52782 -2.28654 2.5
    endloop
  endfacet
  facet normal 0 0 1
    outer loop
      vertex -1.05238 -2.54067 2.5
      vertex -1.72207 -4.15746 2.5
      vertex -1.30628 -4.30623 2.5
    endloop
  endfacet
  facet normal 0 0 1
    outer loop
      vertex -2.85477 -3.47855 2.5
      vertex -1.52782 -2.28654 2.5
      vertex -1.94454 -1.94454 2.5
    endloop
  endfacet
  facet normal 0 0 1
    outer loop
      vertex -1.05238 -2.54067 2.5
      vertex -2.12128 -3.96865 2.5
      vertex -1.72207 -4.15746 2.5
    endloop
  endfacet
  facet normal 0 0 1
    outer loop
      vertex -3.47855 -2.85477 2.5
      vertex -1.94454 -1.94454 2.5
      vertex -2.28654 -1.52782 2.5
    endloop
  endfacet
  facet normal 0 0 1
    outer loop
      vertex -1.52782 -2.28654 2.5
      vertex -2.50007 -3.74161 2.5
      vertex -2.12128 -3.96865 2.5
    endloop
  endfacet
  facet normal 0 0 1
    outer loop
      vertex -3.96865 -2.12128 2.5
      vertex -2.28654 -1.52782 2.5
      vertex -2.54067 -1.05238 2.5
    endloop
  endfacet
  facet normal 0 0 1
    outer loop
      vertex -4.30623 -1.30628 2.5
      vertex -2.54067 -1.05238 2.5
      vertex -2.69716 -0.536498 2.5
    endloop
  endfacet
  facet normal -0 0 1
    outer loop
      vertex -4.47833 -0.441076 2.5
      vertex -2.69716 -0.536498 2.5
      vertex -2.75 0 2.5
    endloop
  endfacet
  facet normal 0 0 1
    outer loop
      vertex -1.52782 -2.28654 2.5
      vertex -2.85477 -3.47855 2.5
      vertex -2.50007 -3.74161 2.5
    endloop
  endfacet
  facet normal -0 0 1
    outer loop
      vertex -3.96865 2.12128 2.5
      vertex -2.28654 1.52782 2.5
      vertex -3.74161 2.50007 2.5
    endloop
  endfacet
  facet normal 0 0 1
    outer loop
      vertex -2.28654 1.52782 2.5
      vertex -3.96865 2.12128 2.5
      vertex -2.54067 1.05238 2.5
    endloop
  endfacet
  facet normal 0 0 1
    outer loop
      vertex -1.94454 -1.94454 2.5
      vertex -3.18198 -3.18198 2.5
      vertex -2.85477 -3.47855 2.5
    endloop
  endfacet
  facet normal -0 0 1
    outer loop
      vertex -4.15746 1.72207 2.5
      vertex -2.54067 1.05238 2.5
      vertex -3.96865 2.12128 2.5
    endloop
  endfacet
  facet normal 0 0 1
    outer loop
      vertex -1.94454 -1.94454 2.5
      vertex -3.47855 -2.85477 2.5
      vertex -3.18198 -3.18198 2.5
    endloop
  endfacet
  facet normal -0 0 1
    outer loop
      vertex -4.30623 1.30628 2.5
      vertex -2.54067 1.05238 2.5
      vertex -4.15746 1.72207 2.5
    endloop
  endfacet
  facet normal 0 0 1
    outer loop
      vertex -2.28654 -1.52782 2.5
      vertex -3.74161 -2.50007 2.5
      vertex -3.47855 -2.85477 2.5
    endloop
  endfacet
  facet normal 0 0 1
    outer loop
      vertex -2.54067 1.05238 2.5
      vertex -4.30623 1.30628 2.5
      vertex -2.69716 0.536498 2.5
    endloop
  endfacet
  facet normal 0 0 1
    outer loop
      vertex -2.28654 -1.52782 2.5
      vertex -3.96865 -2.12128 2.5
      vertex -3.74161 -2.50007 2.5
    endloop
  endfacet
  facet normal -0 0 1
    outer loop
      vertex -4.41353 0.877906 2.5
      vertex -2.69716 0.536498 2.5
      vertex -4.30623 1.30628 2.5
    endloop
  endfacet
  facet normal 0 0 1
    outer loop
      vertex -2.54067 -1.05238 2.5
      vertex -4.15746 -1.72207 2.5
      vertex -3.96865 -2.12128 2.5
    endloop
  endfacet
  facet normal 0 0 1
    outer loop
      vertex -4.47833 0.441076 2.5
      vertex -2.69716 0.536498 2.5
      vertex -4.41353 0.877906 2.5
    endloop
  endfacet
  facet normal 0 0 1
    outer loop
      vertex -2.54067 -1.05238 2.5
      vertex -4.30623 -1.30628 2.5
      vertex -4.15746 -1.72207 2.5
    endloop
  endfacet
  facet normal 0 0 1
    outer loop
      vertex -2.69716 0.536498 2.5
      vertex -4.47833 0.441076 2.5
      vertex -2.75 0 2.5
    endloop
  endfacet
  facet normal 0 0 1
    outer loop
      vertex -2.69716 -0.536498 2.5
      vertex -4.41353 -0.877906 2.5
      vertex -4.30623 -1.30628 2.5
    endloop
  endfacet
  facet normal 0 0 1
    outer loop
      vertex -4.5 0 2.5
      vertex -2.75 0 2.5
      vertex -4.47833 0.441076 2.5
    endloop
  endfacet
  facet normal 0 0 1
    outer loop
      vertex -2.69716 -0.536498 2.5
      vertex -4.47833 -0.441076 2.5
      vertex -4.41353 -0.877906 2.5
    endloop
  endfacet
  facet normal 0 0 1
    outer loop
      vertex -2.75 0 2.5
      vertex -4.5 0 2.5
      vertex -4.47833 -0.441076 2.5
    endloop
  endfacet
  facet normal -0.514103 0.857729 0
    outer loop
      vertex -2.12128 3.96865 -2.5
      vertex -2.50007 3.74161 2.5
      vertex -2.12128 3.96865 2.5
    endloop
  endfacet
  facet normal -0.514103 0.857729 0
    outer loop
      vertex -2.50007 3.74161 2.5
      vertex -2.12128 3.96865 -2.5
      vertex -2.50007 3.74161 -2.5
    endloop
  endfacet
  facet normal -0.427555 0.903989 0
    outer loop
      vertex -1.72207 4.15746 -2.5
      vertex -2.12128 3.96865 2.5
      vertex -1.72207 4.15746 2.5
    endloop
  endfacet
  facet normal -0.427555 0.903989 0
    outer loop
      vertex -2.12128 3.96865 2.5
      vertex -1.72207 4.15746 -2.5
      vertex -2.12128 3.96865 -2.5
    endloop
  endfacet
  facet normal -0.595699 0.803208 0
    outer loop
      vertex -2.50007 3.74161 -2.5
      vertex -2.85477 3.47855 2.5
      vertex -2.50007 3.74161 2.5
    endloop
  endfacet
  facet normal -0.595699 0.803208 0
    outer loop
      vertex -2.85477 3.47855 2.5
      vertex -2.50007 3.74161 -2.5
      vertex -2.85477 3.47855 -2.5
    endloop
  endfacet
  facet normal -0.242979 0.970031 0
    outer loop
      vertex -0.877906 4.41353 -2.5
      vertex -1.30628 4.30623 2.5
      vertex -0.877906 4.41353 2.5
    endloop
  endfacet
  facet normal -0.242979 0.970031 0
    outer loop
      vertex -1.30628 4.30623 2.5
      vertex -0.877906 4.41353 -2.5
      vertex -1.30628 4.30623 -2.5
    endloop
  endfacet
  facet normal -0.0490693 0.998795 0
    outer loop
      vertex 0 4.5 -2.5
      vertex -0.441076 4.47833 2.5
      vertex 0 4.5 2.5
    endloop
  endfacet
  facet normal -0.0490693 0.998795 0
    outer loop
      vertex -0.441076 4.47833 2.5
      vertex 0 4.5 -2.5
      vertex -0.441076 4.47833 -2.5
    endloop
  endfacet
  facet normal 0.998795 -0.0490693 0
    outer loop
      vertex 4.47833 -0.441076 2.5
      vertex 4.5 0 -2.5
      vertex 4.5 0 2.5
    endloop
  endfacet
  facet normal 0.998795 -0.0490693 0
    outer loop
      vertex 4.5 0 -2.5
      vertex 4.47833 -0.441076 2.5
      vertex 4.47833 -0.441076 -2.5
    endloop
  endfacet
  facet normal 0.0490693 -0.998795 0
    outer loop
      vertex 0 -4.5 -2.5
      vertex 0.441076 -4.47833 2.5
      vertex 0 -4.5 2.5
    endloop
  endfacet
  facet normal 0.0490693 -0.998795 0
    outer loop
      vertex 0.441076 -4.47833 2.5
      vertex 0 -4.5 -2.5
      vertex 0.441076 -4.47833 -2.5
    endloop
  endfacet
  facet normal 0.242979 -0.970031 0
    outer loop
      vertex 0.877906 -4.41353 -2.5
      vertex 1.30628 -4.30623 2.5
      vertex 0.877906 -4.41353 2.5
    endloop
  endfacet
  facet normal 0.242979 -0.970031 0
    outer loop
      vertex 1.30628 -4.30623 2.5
      vertex 0.877906 -4.41353 -2.5
      vertex 1.30628 -4.30623 -2.5
    endloop
  endfacet
  facet normal 0.595699 -0.803208 0
    outer loop
      vertex 2.50007 -3.74161 -2.5
      vertex 2.85477 -3.47855 2.5
      vertex 2.50007 -3.74161 2.5
    endloop
  endfacet
  facet normal 0.595699 -0.803208 0
    outer loop
      vertex 2.85477 -3.47855 2.5
      vertex 2.50007 -3.74161 -2.5
      vertex 2.85477 -3.47855 -2.5
    endloop
  endfacet
  facet normal 0.427555 -0.903989 0
    outer loop
      vertex 1.72207 -4.15746 -2.5
      vertex 2.12128 -3.96865 2.5
      vertex 1.72207 -4.15746 2.5
    endloop
  endfacet
  facet normal 0.427555 -0.903989 0
    outer loop
      vertex 2.12128 -3.96865 2.5
      vertex 1.72207 -4.15746 -2.5
      vertex 2.12128 -3.96865 -2.5
    endloop
  endfacet
  facet normal 0.740951 -0.671559 0
    outer loop
      vertex 3.18198 -3.18198 2.5
      vertex 3.47855 -2.85477 -2.5
      vertex 3.47855 -2.85477 2.5
    endloop
  endfacet
  facet normal 0.740951 -0.671559 0
    outer loop
      vertex 3.47855 -2.85477 -2.5
      vertex 3.18198 -3.18198 2.5
      vertex 3.18198 -3.18198 -2.5
    endloop
  endfacet
  facet normal 0.857729 -0.514103 0
    outer loop
      vertex 3.74161 -2.50007 2.5
      vertex 3.96865 -2.12128 -2.5
      vertex 3.96865 -2.12128 2.5
    endloop
  endfacet
  facet normal 0.857729 -0.514103 0
    outer loop
      vertex 3.96865 -2.12128 -2.5
      vertex 3.74161 -2.50007 2.5
      vertex 3.74161 -2.50007 -2.5
    endloop
  endfacet
  facet normal -0.671559 -0.740951 0
    outer loop
      vertex -3.18198 -3.18198 -2.5
      vertex -2.85477 -3.47855 2.5
      vertex -3.18198 -3.18198 2.5
    endloop
  endfacet
  facet normal -0.671559 -0.740951 -0
    outer loop
      vertex -2.85477 -3.47855 2.5
      vertex -3.18198 -3.18198 -2.5
      vertex -2.85477 -3.47855 -2.5
    endloop
  endfacet
  facet normal -0.514103 -0.857729 0
    outer loop
      vertex -2.50007 -3.74161 -2.5
      vertex -2.12128 -3.96865 2.5
      vertex -2.50007 -3.74161 2.5
    endloop
  endfacet
  facet normal -0.514103 -0.857729 -0
    outer loop
      vertex -2.12128 -3.96865 2.5
      vertex -2.50007 -3.74161 -2.5
      vertex -2.12128 -3.96865 -2.5
    endloop
  endfacet
  facet normal -0.336891 -0.941544 0
    outer loop
      vertex -1.72207 -4.15746 -2.5
      vertex -1.30628 -4.30623 2.5
      vertex -1.72207 -4.15746 2.5
    endloop
  endfacet
  facet normal -0.336891 -0.941544 -0
    outer loop
      vertex -1.30628 -4.30623 2.5
      vertex -1.72207 -4.15746 -2.5
      vertex -1.30628 -4.30623 -2.5
    endloop
  endfacet
  facet normal -0.14673 -0.989177 0
    outer loop
      vertex -0.877906 -4.41353 -2.5
      vertex -0.441076 -4.47833 2.5
      vertex -0.877906 -4.41353 2.5
    endloop
  endfacet
  facet normal -0.14673 -0.989177 -0
    outer loop
      vertex -0.441076 -4.47833 2.5
      vertex -0.877906 -4.41353 -2.5
      vertex -0.441076 -4.47833 -2.5
    endloop
  endfacet
  facet normal -0.857729 -0.514103 0
    outer loop
      vertex -3.74161 -2.50007 -2.5
      vertex -3.96865 -2.12128 2.5
      vertex -3.96865 -2.12128 -2.5
    endloop
  endfacet
  facet normal -0.857729 -0.514103 0
    outer loop
      vertex -3.96865 -2.12128 2.5
      vertex -3.74161 -2.50007 -2.5
      vertex -3.74161 -2.50007 2.5
    endloop
  endfacet
  facet normal -0.903989 -0.427555 0
    outer loop
      vertex -3.96865 -2.12128 -2.5
      vertex -4.15746 -1.72207 2.5
      vertex -4.15746 -1.72207 -2.5
    endloop
  endfacet
  facet normal -0.903989 -0.427555 0
    outer loop
      vertex -4.15746 -1.72207 2.5
      vertex -3.96865 -2.12128 -2.5
      vertex -3.96865 -2.12128 2.5
    endloop
  endfacet
  facet normal -0.803208 -0.595699 0
    outer loop
      vertex -3.47855 -2.85477 -2.5
      vertex -3.74161 -2.50007 2.5
      vertex -3.74161 -2.50007 -2.5
    endloop
  endfacet
  facet normal -0.803208 -0.595699 0
    outer loop
      vertex -3.74161 -2.50007 2.5
      vertex -3.47855 -2.85477 -2.5
      vertex -3.47855 -2.85477 2.5
    endloop
  endfacet
  facet normal -0.970031 -0.242979 0
    outer loop
      vertex -4.30623 -1.30628 -2.5
      vertex -4.41353 -0.877906 2.5
      vertex -4.41353 -0.877906 -2.5
    endloop
  endfacet
  facet normal -0.970031 -0.242979 0
    outer loop
      vertex -4.41353 -0.877906 2.5
      vertex -4.30623 -1.30628 -2.5
      vertex -4.30623 -1.30628 2.5
    endloop
  endfacet
  facet normal -0.941544 -0.336891 0
    outer loop
      vertex -4.15746 -1.72207 -2.5
      vertex -4.30623 -1.30628 2.5
      vertex -4.30623 -1.30628 -2.5
    endloop
  endfacet
  facet normal -0.941544 -0.336891 0
    outer loop
      vertex -4.30623 -1.30628 2.5
      vertex -4.15746 -1.72207 -2.5
      vertex -4.15746 -1.72207 2.5
    endloop
  endfacet
  facet normal -0.998795 -0.0490693 0
    outer loop
      vertex -4.47833 -0.441076 -2.5
      vertex -4.5 0 2.5
      vertex -4.5 0 -2.5
    endloop
  endfacet
  facet normal -0.998795 -0.0490693 0
    outer loop
      vertex -4.5 0 2.5
      vertex -4.47833 -0.441076 -2.5
      vertex -4.47833 -0.441076 2.5
    endloop
  endfacet
  facet normal 0.14673 -0.989177 0
    outer loop
      vertex 0.441076 -4.47833 -2.5
      vertex 0.877906 -4.41353 2.5
      vertex 0.441076 -4.47833 2.5
    endloop
  endfacet
  facet normal 0.14673 -0.989177 0
    outer loop
      vertex 0.877906 -4.41353 2.5
      vertex 0.441076 -4.47833 -2.5
      vertex 0.877906 -4.41353 -2.5
    endloop
  endfacet
  facet normal 0.336891 -0.941544 0
    outer loop
      vertex 1.30628 -4.30623 -2.5
      vertex 1.72207 -4.15746 2.5
      vertex 1.30628 -4.30623 2.5
    endloop
  endfacet
  facet normal 0.336891 -0.941544 0
    outer loop
      vertex 1.72207 -4.15746 2.5
      vertex 1.30628 -4.30623 -2.5
      vertex 1.72207 -4.15746 -2.5
    endloop
  endfacet
  facet normal 0.671559 -0.740951 0
    outer loop
      vertex 2.85477 -3.47855 -2.5
      vertex 3.18198 -3.18198 2.5
      vertex 2.85477 -3.47855 2.5
    endloop
  endfacet
  facet normal 0.671559 -0.740951 0
    outer loop
      vertex 3.18198 -3.18198 2.5
      vertex 2.85477 -3.47855 -2.5
      vertex 3.18198 -3.18198 -2.5
    endloop
  endfacet
  facet normal 0.514103 -0.857729 0
    outer loop
      vertex 2.12128 -3.96865 -2.5
      vertex 2.50007 -3.74161 2.5
      vertex 2.12128 -3.96865 2.5
    endloop
  endfacet
  facet normal 0.514103 -0.857729 0
    outer loop
      vertex 2.50007 -3.74161 2.5
      vertex 2.12128 -3.96865 -2.5
      vertex 2.50007 -3.74161 -2.5
    endloop
  endfacet
  facet normal 0.803208 -0.595699 0
    outer loop
      vertex 3.47855 -2.85477 2.5
      vertex 3.74161 -2.50007 -2.5
      vertex 3.74161 -2.50007 2.5
    endloop
  endfacet
  facet normal 0.803208 -0.595699 0
    outer loop
      vertex 3.74161 -2.50007 -2.5
      vertex 3.47855 -2.85477 2.5
      vertex 3.47855 -2.85477 -2.5
    endloop
  endfacet
  facet normal 0.903989 -0.427555 0
    outer loop
      vertex 3.96865 -2.12128 2.5
      vertex 4.15746 -1.72207 -2.5
      vertex 4.15746 -1.72207 2.5
    endloop
  endfacet
  facet normal 0.903989 -0.427555 0
    outer loop
      vertex 4.15746 -1.72207 -2.5
      vertex 3.96865 -2.12128 2.5
      vertex 3.96865 -2.12128 -2.5
    endloop
  endfacet
  facet normal 0.989177 -0.14673 0
    outer loop
      vertex 4.41353 -0.877906 2.5
      vertex 4.47833 -0.441076 -2.5
      vertex 4.47833 -0.441076 2.5
    endloop
  endfacet
  facet normal 0.989177 -0.14673 0
    outer loop
      vertex 4.47833 -0.441076 -2.5
      vertex 4.41353 -0.877906 2.5
      vertex 4.41353 -0.877906 -2.5
    endloop
  endfacet
  facet normal 0.970031 -0.242979 0
    outer loop
      vertex 4.30623 -1.30628 2.5
      vertex 4.41353 -0.877906 -2.5
      vertex 4.41353 -0.877906 2.5
    endloop
  endfacet
  facet normal 0.970031 -0.242979 0
    outer loop
      vertex 4.41353 -0.877906 -2.5
      vertex 4.30623 -1.30628 2.5
      vertex 4.30623 -1.30628 -2.5
    endloop
  endfacet
  facet normal -0.595699 -0.803208 0
    outer loop
      vertex -2.85477 -3.47855 -2.5
      vertex -2.50007 -3.74161 2.5
      vertex -2.85477 -3.47855 2.5
    endloop
  endfacet
  facet normal -0.595699 -0.803208 -0
    outer loop
      vertex -2.50007 -3.74161 2.5
      vertex -2.85477 -3.47855 -2.5
      vertex -2.50007 -3.74161 -2.5
    endloop
  endfacet
  facet normal -0.427555 -0.903989 0
    outer loop
      vertex -2.12128 -3.96865 -2.5
      vertex -1.72207 -4.15746 2.5
      vertex -2.12128 -3.96865 2.5
    endloop
  endfacet
  facet normal -0.427555 -0.903989 -0
    outer loop
      vertex -1.72207 -4.15746 2.5
      vertex -2.12128 -3.96865 -2.5
      vertex -1.72207 -4.15746 -2.5
    endloop
  endfacet
  facet normal -0.242979 -0.970031 0
    outer loop
      vertex -1.30628 -4.30623 -2.5
      vertex -0.877906 -4.41353 2.5
      vertex -1.30628 -4.30623 2.5
    endloop
  endfacet
  facet normal -0.242979 -0.970031 -0
    outer loop
      vertex -0.877906 -4.41353 2.5
      vertex -1.30628 -4.30623 -2.5
      vertex -0.877906 -4.41353 -2.5
    endloop
  endfacet
  facet normal -0.740951 -0.671559 0
    outer loop
      vertex -3.18198 -3.18198 -2.5
      vertex -3.47855 -2.85477 2.5
      vertex -3.47855 -2.85477 -2.5
    endloop
  endfacet
  facet normal -0.740951 -0.671559 0
    outer loop
      vertex -3.47855 -2.85477 2.5
      vertex -3.18198 -3.18198 -2.5
      vertex -3.18198 -3.18198 2.5
    endloop
  endfacet
  facet normal -0.989177 -0.14673 0
    outer loop
      vertex -4.41353 -0.877906 -2.5
      vertex -4.47833 -0.441076 2.5
      vertex -4.47833 -0.441076 -2.5
    endloop
  endfacet
  facet normal -0.989177 -0.14673 0
    outer loop
      vertex -4.47833 -0.441076 2.5
      vertex -4.41353 -0.877906 -2.5
      vertex -4.41353 -0.877906 2.5
    endloop
  endfacet
  facet normal -0.471397 -0.881921 0
    outer loop
      vertex 1.05238 2.54067 -2.5
      vertex 1.52782 2.28654 2.5
      vertex 1.05238 2.54067 2.5
    endloop
  endfacet
  facet normal -0.471397 -0.881921 -0
    outer loop
      vertex 1.52782 2.28654 2.5
      vertex 1.05238 2.54067 -2.5
      vertex 1.52782 2.28654 -2.5
    endloop
  endfacet
  facet normal -0.995185 0.0980185 0
    outer loop
      vertex 2.69716 -0.536498 -2.5
      vertex 2.75 0 2.5
      vertex 2.75 0 -2.5
    endloop
  endfacet
  facet normal -0.995185 0.0980185 0
    outer loop
      vertex 2.75 0 2.5
      vertex 2.69716 -0.536498 -2.5
      vertex 2.69716 -0.536498 2.5
    endloop
  endfacet
  facet normal 0.290284 0.956941 -0
    outer loop
      vertex -0.536498 -2.69716 -2.5
      vertex -1.05238 -2.54067 2.5
      vertex -0.536498 -2.69716 2.5
    endloop
  endfacet
  facet normal 0.290284 0.956941 0
    outer loop
      vertex -1.05238 -2.54067 2.5
      vertex -0.536498 -2.69716 -2.5
      vertex -1.05238 -2.54067 -2.5
    endloop
  endfacet
  facet normal 0.290284 -0.956941 0
    outer loop
      vertex -1.05238 2.54067 -2.5
      vertex -0.536498 2.69716 2.5
      vertex -1.05238 2.54067 2.5
    endloop
  endfacet
  facet normal 0.290284 -0.956941 0
    outer loop
      vertex -0.536498 2.69716 2.5
      vertex -1.05238 2.54067 -2.5
      vertex -0.536498 2.69716 -2.5
    endloop
  endfacet
  facet normal 0.881921 -0.471397 0
    outer loop
      vertex -2.54067 1.05238 2.5
      vertex -2.28654 1.52782 -2.5
      vertex -2.28654 1.52782 2.5
    endloop
  endfacet
  facet normal 0.881921 -0.471397 0
    outer loop
      vertex -2.28654 1.52782 -2.5
      vertex -2.54067 1.05238 2.5
      vertex -2.54067 1.05238 -2.5
    endloop
  endfacet
  facet normal 0.881921 0.471397 0
    outer loop
      vertex -2.28654 -1.52782 2.5
      vertex -2.54067 -1.05238 -2.5
      vertex -2.54067 -1.05238 2.5
    endloop
  endfacet
  facet normal 0.881921 0.471397 0
    outer loop
      vertex -2.54067 -1.05238 -2.5
      vertex -2.28654 -1.52782 2.5
      vertex -2.28654 -1.52782 -2.5
    endloop
  endfacet
  facet normal -0.956941 -0.290284 0
    outer loop
      vertex 2.69716 0.536498 -2.5
      vertex 2.54067 1.05238 2.5
      vertex 2.54067 1.05238 -2.5
    endloop
  endfacet
  facet normal -0.956941 -0.290284 0
    outer loop
      vertex 2.54067 1.05238 2.5
      vertex 2.69716 0.536498 -2.5
      vertex 2.69716 0.536498 2.5
    endloop
  endfacet
  facet normal -0.881921 -0.471397 0
    outer loop
      vertex 2.54067 1.05238 -2.5
      vertex 2.28654 1.52782 2.5
      vertex 2.28654 1.52782 -2.5
    endloop
  endfacet
  facet normal -0.881921 -0.471397 0
    outer loop
      vertex 2.28654 1.52782 2.5
      vertex 2.54067 1.05238 -2.5
      vertex 2.54067 1.05238 2.5
    endloop
  endfacet
  facet normal -0.77301 -0.634394 0
    outer loop
      vertex 2.28654 1.52782 -2.5
      vertex 1.94454 1.94454 2.5
      vertex 1.94454 1.94454 -2.5
    endloop
  endfacet
  facet normal -0.77301 -0.634394 0
    outer loop
      vertex 1.94454 1.94454 2.5
      vertex 2.28654 1.52782 -2.5
      vertex 2.28654 1.52782 2.5
    endloop
  endfacet
  facet normal -0.634394 -0.77301 0
    outer loop
      vertex 1.52782 2.28654 -2.5
      vertex 1.94454 1.94454 2.5
      vertex 1.52782 2.28654 2.5
    endloop
  endfacet
  facet normal -0.634394 -0.77301 -0
    outer loop
      vertex 1.94454 1.94454 2.5
      vertex 1.52782 2.28654 -2.5
      vertex 1.94454 1.94454 -2.5
    endloop
  endfacet
  facet normal -0.0980185 -0.995185 0
    outer loop
      vertex 0 2.75 -2.5
      vertex 0.536498 2.69716 2.5
      vertex 0 2.75 2.5
    endloop
  endfacet
  facet normal -0.0980185 -0.995185 -0
    outer loop
      vertex 0.536498 2.69716 2.5
      vertex 0 2.75 -2.5
      vertex 0.536498 2.69716 -2.5
    endloop
  endfacet
  facet normal 0.995185 -0.0980185 0
    outer loop
      vertex -2.75 0 2.5
      vertex -2.69716 0.536498 -2.5
      vertex -2.69716 0.536498 2.5
    endloop
  endfacet
  facet normal 0.995185 -0.0980185 0
    outer loop
      vertex -2.69716 0.536498 -2.5
      vertex -2.75 0 2.5
      vertex -2.75 0 -2.5
    endloop
  endfacet
  facet normal 0.77301 -0.634394 0
    outer loop
      vertex -2.28654 1.52782 2.5
      vertex -1.94454 1.94454 -2.5
      vertex -1.94454 1.94454 2.5
    endloop
  endfacet
  facet normal 0.77301 -0.634394 0
    outer loop
      vertex -1.94454 1.94454 -2.5
      vertex -2.28654 1.52782 2.5
      vertex -2.28654 1.52782 -2.5
    endloop
  endfacet
  facet normal 0.471397 -0.881921 0
    outer loop
      vertex -1.52782 2.28654 -2.5
      vertex -1.05238 2.54067 2.5
      vertex -1.52782 2.28654 2.5
    endloop
  endfacet
  facet normal 0.471397 -0.881921 0
    outer loop
      vertex -1.05238 2.54067 2.5
      vertex -1.52782 2.28654 -2.5
      vertex -1.05238 2.54067 -2.5
    endloop
  endfacet
  facet normal 0.0980185 -0.995185 0
    outer loop
      vertex -0.536498 2.69716 -2.5
      vertex 0 2.75 2.5
      vertex -0.536498 2.69716 2.5
    endloop
  endfacet
  facet normal 0.0980185 -0.995185 0
    outer loop
      vertex 0 2.75 2.5
      vertex -0.536498 2.69716 -2.5
      vertex 0 2.75 -2.5
    endloop
  endfacet
  facet normal 0.634394 -0.77301 0
    outer loop
      vertex -1.94454 1.94454 -2.5
      vertex -1.52782 2.28654 2.5
      vertex -1.94454 1.94454 2.5
    endloop
  endfacet
  facet normal 0.634394 -0.77301 0
    outer loop
      vertex -1.52782 2.28654 2.5
      vertex -1.94454 1.94454 -2.5
      vertex -1.52782 2.28654 -2.5
    endloop
  endfacet
  facet normal -0.995185 -0.0980185 0
    outer loop
      vertex 2.75 0 -2.5
      vertex 2.69716 0.536498 2.5
      vertex 2.69716 0.536498 -2.5
    endloop
  endfacet
  facet normal -0.995185 -0.0980185 0
    outer loop
      vertex 2.69716 0.536498 2.5
      vertex 2.75 0 -2.5
      vertex 2.75 0 2.5
    endloop
  endfacet
  facet normal -0.471397 0.881921 0
    outer loop
      vertex 1.52782 -2.28654 -2.5
      vertex 1.05238 -2.54067 2.5
      vertex 1.52782 -2.28654 2.5
    endloop
  endfacet
  facet normal -0.471397 0.881921 0
    outer loop
      vertex 1.05238 -2.54067 2.5
      vertex 1.52782 -2.28654 -2.5
      vertex 1.05238 -2.54067 -2.5
    endloop
  endfacet
  facet normal -0.881921 0.471397 0
    outer loop
      vertex 2.28654 -1.52782 -2.5
      vertex 2.54067 -1.05238 2.5
      vertex 2.54067 -1.05238 -2.5
    endloop
  endfacet
  facet normal -0.881921 0.471397 0
    outer loop
      vertex 2.54067 -1.05238 2.5
      vertex 2.28654 -1.52782 -2.5
      vertex 2.28654 -1.52782 2.5
    endloop
  endfacet
  facet normal -0.956941 0.290284 0
    outer loop
      vertex 2.54067 -1.05238 -2.5
      vertex 2.69716 -0.536498 2.5
      vertex 2.69716 -0.536498 -2.5
    endloop
  endfacet
  facet normal -0.956941 0.290284 0
    outer loop
      vertex 2.69716 -0.536498 2.5
      vertex 2.54067 -1.05238 -2.5
      vertex 2.54067 -1.05238 2.5
    endloop
  endfacet
  facet normal -0.634394 0.77301 0
    outer loop
      vertex 1.94454 -1.94454 -2.5
      vertex 1.52782 -2.28654 2.5
      vertex 1.94454 -1.94454 2.5
    endloop
  endfacet
  facet normal -0.634394 0.77301 0
    outer loop
      vertex 1.52782 -2.28654 2.5
      vertex 1.94454 -1.94454 -2.5
      vertex 1.52782 -2.28654 -2.5
    endloop
  endfacet
  facet normal 0.0980185 0.995185 -0
    outer loop
      vertex 0 -2.75 -2.5
      vertex -0.536498 -2.69716 2.5
      vertex 0 -2.75 2.5
    endloop
  endfacet
  facet normal 0.0980185 0.995185 0
    outer loop
      vertex -0.536498 -2.69716 2.5
      vertex 0 -2.75 -2.5
      vertex -0.536498 -2.69716 -2.5
    endloop
  endfacet
  facet normal 0.634394 0.77301 -0
    outer loop
      vertex -1.52782 -2.28654 -2.5
      vertex -1.94454 -1.94454 2.5
      vertex -1.52782 -2.28654 2.5
    endloop
  endfacet
  facet normal 0.634394 0.77301 0
    outer loop
      vertex -1.94454 -1.94454 2.5
      vertex -1.52782 -2.28654 -2.5
      vertex -1.94454 -1.94454 -2.5
    endloop
  endfacet
  facet normal 0.995185 0.0980185 0
    outer loop
      vertex -2.69716 -0.536498 2.5
      vertex -2.75 0 -2.5
      vertex -2.75 0 2.5
    endloop
  endfacet
  facet normal 0.995185 0.0980185 0
    outer loop
      vertex -2.75 0 -2.5
      vertex -2.69716 -0.536498 2.5
      vertex -2.69716 -0.536498 -2.5
    endloop
  endfacet
  facet normal -0.290284 -0.956941 0
    outer loop
      vertex 0.536498 2.69716 -2.5
      vertex 1.05238 2.54067 2.5
      vertex 0.536498 2.69716 2.5
    endloop
  endfacet
  facet normal -0.290284 -0.956941 -0
    outer loop
      vertex 1.05238 2.54067 2.5
      vertex 0.536498 2.69716 -2.5
      vertex 1.05238 2.54067 -2.5
    endloop
  endfacet
  facet normal 0.956941 -0.290284 0
    outer loop
      vertex -2.69716 0.536498 2.5
      vertex -2.54067 1.05238 -2.5
      vertex -2.54067 1.05238 2.5
    endloop
  endfacet
  facet normal 0.956941 -0.290284 0
    outer loop
      vertex -2.54067 1.05238 -2.5
      vertex -2.69716 0.536498 2.5
      vertex -2.69716 0.536498 -2.5
    endloop
  endfacet
  facet normal -0.0980185 0.995185 0
    outer loop
      vertex 0.536498 -2.69716 -2.5
      vertex 0 -2.75 2.5
      vertex 0.536498 -2.69716 2.5
    endloop
  endfacet
  facet normal -0.0980185 0.995185 0
    outer loop
      vertex 0 -2.75 2.5
      vertex 0.536498 -2.69716 -2.5
      vertex 0 -2.75 -2.5
    endloop
  endfacet
  facet normal -0.290284 0.956941 0
    outer loop
      vertex 1.05238 -2.54067 -2.5
      vertex 0.536498 -2.69716 2.5
      vertex 1.05238 -2.54067 2.5
    endloop
  endfacet
  facet normal -0.290284 0.956941 0
    outer loop
      vertex 0.536498 -2.69716 2.5
      vertex 1.05238 -2.54067 -2.5
      vertex 0.536498 -2.69716 -2.5
    endloop
  endfacet
  facet normal -0.77301 0.634394 0
    outer loop
      vertex 1.94454 -1.94454 -2.5
      vertex 2.28654 -1.52782 2.5
      vertex 2.28654 -1.52782 -2.5
    endloop
  endfacet
  facet normal -0.77301 0.634394 0
    outer loop
      vertex 2.28654 -1.52782 2.5
      vertex 1.94454 -1.94454 -2.5
      vertex 1.94454 -1.94454 2.5
    endloop
  endfacet
  facet normal 0.471397 0.881921 -0
    outer loop
      vertex -1.05238 -2.54067 -2.5
      vertex -1.52782 -2.28654 2.5
      vertex -1.05238 -2.54067 2.5
    endloop
  endfacet
  facet normal 0.471397 0.881921 0
    outer loop
      vertex -1.52782 -2.28654 2.5
      vertex -1.05238 -2.54067 -2.5
      vertex -1.52782 -2.28654 -2.5
    endloop
  endfacet
  facet normal 0.956941 0.290284 0
    outer loop
      vertex -2.54067 -1.05238 2.5
      vertex -2.69716 -0.536498 -2.5
      vertex -2.69716 -0.536498 2.5
    endloop
  endfacet
  facet normal 0.956941 0.290284 0
    outer loop
      vertex -2.69716 -0.536498 -2.5
      vertex -2.54067 -1.05238 2.5
      vertex -2.54067 -1.05238 -2.5
    endloop
  endfacet
  facet normal 0.77301 0.634394 0
    outer loop
      vertex -1.94454 -1.94454 2.5
      vertex -2.28654 -1.52782 -2.5
      vertex -2.28654 -1.52782 2.5
    endloop
  endfacet
  facet normal 0.77301 0.634394 0
    outer loop
      vertex -2.28654 -1.52782 -2.5
      vertex -1.94454 -1.94454 2.5
      vertex -1.94454 -1.94454 -2.5
    endloop
  endfacet
endsolid OpenSCAD_Model
