solid OpenSCAD_Model
  facet normal 0 0.978148 0.207912
    outer loop
      vertex 32.9 -15.6924 11.9637
      vertex -36.875 -16.4096 15.3378
      vertex 32.9 -16.4096 15.3378
    endloop
  endfacet
  facet normal 0 0.978148 0.207912
    outer loop
      vertex -36.875 -16.4096 15.3378
      vertex 32.9 -15.6924 11.9637
      vertex -36.875 -15.6924 11.9637
    endloop
  endfacet
  facet normal 0 0.978148 -0.207912
    outer loop
      vertex 32.9 -16.1518 20
      vertex 34.875 -15.6924 22.1613
      vertex 34.875 -16.1518 20
    endloop
  endfacet
  facet normal 0 0.978148 -0.207912
    outer loop
      vertex 34.875 -15.6924 22.1613
      vertex 32.9 -16.1518 20
      vertex -36.875 -15.6924 22.1613
    endloop
  endfacet
  facet normal 0 0.978148 -0.207911
    outer loop
      vertex -36.875 -16.4096 18.7872
      vertex 32.9 -16.1518 20
      vertex 32.9 -16.4096 18.7872
    endloop
  endfacet
  facet normal 5.50162e-09 0.978148 -0.207912
    outer loop
      vertex 32.9 -16.1518 20
      vertex -36.875 -16.4096 18.7872
      vertex -36.875 -15.6924 22.1613
    endloop
  endfacet
  facet normal 0 0.5 -0.866025
    outer loop
      vertex -36.875 -9.69846 30.4113
      vertex 34.875 -8 31.3919
      vertex 34.875 -9.69846 30.4113
    endloop
  endfacet
  facet normal 0 0.5 -0.866025
    outer loop
      vertex 34.875 -8 31.3919
      vertex -36.875 -9.69846 30.4113
      vertex -36.875 -8 31.3919
    endloop
  endfacet
  facet normal 0 0.809015 -0.587788
    outer loop
      vertex 34.875 -12.4097 27.8997
      vertex -36.875 -12.2619 28.1032
      vertex 34.875 -12.2619 28.1032
    endloop
  endfacet
  facet normal 1.07736e-08 0.809017 -0.587785
    outer loop
      vertex -36.875 -12.2619 28.1032
      vertex 34.875 -12.4097 27.8997
      vertex -36.875 -14.1416 25.516
    endloop
  endfacet
  facet normal -0 0.5 0.866025
    outer loop
      vertex -36.875 -8 2.73312
      vertex 18.45 -9.69846 3.71372
      vertex 18.45 -8 2.73312
    endloop
  endfacet
  facet normal 0 0.5 0.866025
    outer loop
      vertex 18.45 -9.69846 3.71372
      vertex -36.875 -8 2.73312
      vertex -36.875 -9.69846 3.71372
    endloop
  endfacet
  facet normal -0 0.5 0.866025
    outer loop
      vertex 21.9572 -9.08126 3.35738
      vertex 32.9 -9.69846 3.71372
      vertex 32.9 -9.08126 3.35738
    endloop
  endfacet
  facet normal 0 0.5 0.866025
    outer loop
      vertex 32.9 -9.69846 3.71372
      vertex 21.9572 -9.08126 3.35738
      vertex 21.34 -9.69846 3.71372
    endloop
  endfacet
  facet normal 0 0.913545 -0.406738
    outer loop
      vertex 34.875 -14.2894 25.3125
      vertex -36.875 -14.3917 25.0827
      vertex -36.875 -14.2894 25.3125
    endloop
  endfacet
  facet normal -5.92831e-09 0.913545 -0.406737
    outer loop
      vertex -36.875 -14.3917 25.0827
      vertex 34.875 -14.2894 25.3125
      vertex 34.875 -15.5901 22.3911
    endloop
  endfacet
  facet normal 0 0.66913 0.743145
    outer loop
      vertex 18.45 -9.69846 3.71372
      vertex -36.875 -9.69846 3.71372
      vertex 18.45 -10.0164 4
    endloop
  endfacet
  facet normal -0 0.669131 0.743145
    outer loop
      vertex 21.34 -9.69846 3.71372
      vertex 32.9 -12.2619 6.02184
      vertex 32.9 -9.69846 3.71372
    endloop
  endfacet
  facet normal 6.91711e-06 0.669126 0.743149
    outer loop
      vertex 21.05 -10.0164 4
      vertex 21.34 -9.69846 3.71372
      vertex 21.1331 -9.90534 3.9
    endloop
  endfacet
  facet normal 0 0.669129 0.743146
    outer loop
      vertex 21.05 -10.0164 4
      vertex 21.1331 -9.90534 3.9
      vertex 21.05 -9.90534 3.9
    endloop
  endfacet
  facet normal -1.79483e-07 0.66913 0.743145
    outer loop
      vertex 21.34 -9.69846 3.71372
      vertex 21.05 -10.0164 4
      vertex 32.9 -12.2619 6.02184
    endloop
  endfacet
  facet normal -0 0.669131 0.743145
    outer loop
      vertex 18.45 -10.0164 4
      vertex 32.9 -12.2619 6.02184
      vertex 21.05 -10.0164 4
    endloop
  endfacet
  facet normal 5.59238e-09 0.669131 0.743145
    outer loop
      vertex -36.875 -12.2619 6.02184
      vertex 18.45 -10.0164 4
      vertex -36.875 -9.69846 3.71372
    endloop
  endfacet
  facet normal 0 0.669131 0.743145
    outer loop
      vertex 18.45 -10.0164 4
      vertex -36.875 -12.2619 6.02184
      vertex 32.9 -12.2619 6.02184
    endloop
  endfacet
  facet normal 0 0.913545 0.406738
    outer loop
      vertex 32.9 -15.6924 11.9637
      vertex -36.875 -15.5901 11.7339
      vertex -36.875 -15.6924 11.9637
    endloop
  endfacet
  facet normal 6.28004e-09 0.913545 0.406737
    outer loop
      vertex -36.875 -15.5901 11.7339
      vertex 32.9 -15.6924 11.9637
      vertex 32.9 -14.4247 9.11637
    endloop
  endfacet
  facet normal 0 0.913545 -0.406738
    outer loop
      vertex -36.875 -15.6924 22.1613
      vertex 34.875 -15.5901 22.3911
      vertex 34.875 -15.6924 22.1613
    endloop
  endfacet
  facet normal -5.92831e-09 0.913545 -0.406737
    outer loop
      vertex 34.875 -15.5901 22.3911
      vertex -36.875 -15.6924 22.1613
      vertex -36.875 -14.3917 25.0827
    endloop
  endfacet
  facet normal -3.62272e-09 0.809017 -0.587785
    outer loop
      vertex 34.875 -14.2894 25.3125
      vertex -36.875 -14.1416 25.516
      vertex 34.875 -12.4097 27.8997
    endloop
  endfacet
  facet normal 0 0.809018 -0.587784
    outer loop
      vertex -36.875 -14.1416 25.516
      vertex 34.875 -14.2894 25.3125
      vertex -36.875 -14.2894 25.3125
    endloop
  endfacet
  facet normal 0 0.669131 -0.743145
    outer loop
      vertex -36.875 -12.2619 28.1032
      vertex 34.875 -9.69846 30.4113
      vertex 34.875 -12.2619 28.1032
    endloop
  endfacet
  facet normal 0 0.669131 -0.743145
    outer loop
      vertex 34.875 -9.69846 30.4113
      vertex -36.875 -12.2619 28.1032
      vertex -36.875 -9.69846 30.4113
    endloop
  endfacet
  facet normal 1.33563e-08 0.913545 0.406737
    outer loop
      vertex 32.9 -14.4247 9.11637
      vertex -36.875 -14.2894 8.8125
      vertex -36.875 -15.5901 11.7339
    endloop
  endfacet
  facet normal 5.55924e-09 0.913545 0.406738
    outer loop
      vertex -36.875 -14.2894 8.8125
      vertex 32.9 -14.4247 9.11637
      vertex 32.9 -14.2894 8.8125
    endloop
  endfacet
  facet normal 8.03376e-09 0.809017 0.587785
    outer loop
      vertex 32.9 -14.0939 8.5434
      vertex -36.875 -14.2894 8.8125
      vertex 32.9 -14.2894 8.8125
    endloop
  endfacet
  facet normal 9.55906e-09 0.809017 0.587785
    outer loop
      vertex -36.875 -14.2894 8.8125
      vertex 32.9 -14.0939 8.5434
      vertex -36.875 -12.4097 6.22533
    endloop
  endfacet
  facet normal 2.12873e-10 0.809017 0.587785
    outer loop
      vertex 32.9 -12.2619 6.02184
      vertex -36.875 -12.4097 6.22533
      vertex 32.9 -14.0939 8.5434
    endloop
  endfacet
  facet normal 0 0.809017 0.587785
    outer loop
      vertex -36.875 -12.4097 6.22533
      vertex 32.9 -12.2619 6.02184
      vertex -36.875 -12.2619 6.02184
    endloop
  endfacet
  facet normal 0 1 -0
    outer loop
      vertex 32.9 -16.4096 15.3378
      vertex -36.875 -16.4096 18.7872
      vertex 32.9 -16.4096 18.7872
    endloop
  endfacet
  facet normal 0 1 0
    outer loop
      vertex -36.875 -16.4096 18.7872
      vertex 32.9 -16.4096 15.3378
      vertex -36.875 -16.4096 15.3378
    endloop
  endfacet
  facet normal 0 1 -0
    outer loop
      vertex 32.9 -16.4096 -18.7872
      vertex -36.875 -16.4096 -15.3378
      vertex 32.9 -16.4096 -15.3378
    endloop
  endfacet
  facet normal 0 1 0
    outer loop
      vertex -36.875 -16.4096 -15.3378
      vertex 32.9 -16.4096 -18.7872
      vertex -36.875 -16.4096 -18.7872
    endloop
  endfacet
  facet normal 0 0.809017 -0.587785
    outer loop
      vertex 32.9 -12.4574 -6.29094
      vertex -36.875 -12.2619 -6.02184
      vertex 32.9 -12.2619 -6.02184
    endloop
  endfacet
  facet normal 1.23816e-09 0.809017 -0.587785
    outer loop
      vertex -36.875 -12.2619 -6.02184
      vertex 32.9 -12.4574 -6.29094
      vertex -36.875 -14.1416 -8.60901
    endloop
  endfacet
  facet normal -0 0.913545 0.406738
    outer loop
      vertex -36.875 -14.2894 -25.3125
      vertex 34.875 -14.3917 -25.0827
      vertex 34.875 -14.2894 -25.3125
    endloop
  endfacet
  facet normal 5.92831e-09 0.913545 0.406737
    outer loop
      vertex 34.875 -14.3917 -25.0827
      vertex -36.875 -14.2894 -25.3125
      vertex -36.875 -15.5901 -22.3911
    endloop
  endfacet
  facet normal -0 0.5 0.866025
    outer loop
      vertex -36.875 -8 -31.3919
      vertex 34.875 -9.69846 -30.4113
      vertex 34.875 -8 -31.3919
    endloop
  endfacet
  facet normal 0 0.5 0.866025
    outer loop
      vertex 34.875 -9.69846 -30.4113
      vertex -36.875 -8 -31.3919
      vertex -36.875 -9.69846 -30.4113
    endloop
  endfacet
  facet normal 0 0.5 -0.866025
    outer loop
      vertex -36.875 -9.69846 -3.71372
      vertex 18.45 -8 -2.73312
      vertex 18.45 -9.69846 -3.71372
    endloop
  endfacet
  facet normal 0 0.5 -0.866025
    outer loop
      vertex 18.45 -8 -2.73312
      vertex -36.875 -9.69846 -3.71372
      vertex -36.875 -8 -2.73312
    endloop
  endfacet
  facet normal 0 0.5 -0.866025
    outer loop
      vertex 32.9 -9.69846 -3.71372
      vertex 21.9572 -9.08126 -3.35738
      vertex 32.9 -9.08126 -3.35738
    endloop
  endfacet
  facet normal 0 0.5 -0.866025
    outer loop
      vertex 21.9572 -9.08126 -3.35738
      vertex 32.9 -9.69846 -3.71372
      vertex 21.34 -9.69846 -3.71372
    endloop
  endfacet
  facet normal -1.1291e-08 0.809017 -0.587785
    outer loop
      vertex 32.9 -14.2894 -8.8125
      vertex -36.875 -14.1416 -8.60901
      vertex 32.9 -12.4574 -6.29094
    endloop
  endfacet
  facet normal -8.03375e-09 0.809018 -0.587784
    outer loop
      vertex -36.875 -14.1416 -8.60901
      vertex 32.9 -14.2894 -8.8125
      vertex -36.875 -14.2894 -8.8125
    endloop
  endfacet
  facet normal -5.55924e-09 0.913545 -0.406738
    outer loop
      vertex 32.9 -14.2894 -8.8125
      vertex -36.875 -14.3917 -9.04228
      vertex -36.875 -14.2894 -8.8125
    endloop
  endfacet
  facet normal -1.13906e-08 0.913545 -0.406737
    outer loop
      vertex -36.875 -14.3917 -9.04228
      vertex 32.9 -14.2894 -8.8125
      vertex 32.9 -15.5571 -11.6599
    endloop
  endfacet
  facet normal 0 0.669131 -0.743145
    outer loop
      vertex 32.9 -12.2619 -6.02184
      vertex 21.34 -9.69846 -3.71372
      vertex 32.9 -9.69846 -3.71372
    endloop
  endfacet
  facet normal -1.79483e-07 0.66913 -0.743145
    outer loop
      vertex 21.05 -10.0164 -4
      vertex 21.34 -9.69846 -3.71372
      vertex 32.9 -12.2619 -6.02184
    endloop
  endfacet
  facet normal 6.91711e-06 0.669126 -0.743149
    outer loop
      vertex 21.34 -9.69846 -3.71372
      vertex 21.05 -10.0164 -4
      vertex 21.1331 -9.90534 -3.9
    endloop
  endfacet
  facet normal 0 0.669131 -0.743145
    outer loop
      vertex 32.9 -12.2619 -6.02184
      vertex 18.45 -10.0164 -4
      vertex 21.05 -10.0164 -4
    endloop
  endfacet
  facet normal 0 0.669131 -0.743145
    outer loop
      vertex -36.875 -12.2619 -6.02184
      vertex 18.45 -10.0164 -4
      vertex 32.9 -12.2619 -6.02184
    endloop
  endfacet
  facet normal 5.59238e-09 0.669131 -0.743145
    outer loop
      vertex -36.875 -9.69846 -3.71372
      vertex 18.45 -10.0164 -4
      vertex -36.875 -12.2619 -6.02184
    endloop
  endfacet
  facet normal 0 0.66913 -0.743145
    outer loop
      vertex 18.45 -10.0164 -4
      vertex -36.875 -9.69846 -3.71372
      vertex 18.45 -9.69846 -3.71372
    endloop
  endfacet
  facet normal 0 0.669129 -0.743146
    outer loop
      vertex 21.1331 -9.90534 -3.9
      vertex 21.05 -10.0164 -4
      vertex 21.05 -9.90534 -3.9
    endloop
  endfacet
  facet normal -0 0.669131 0.743145
    outer loop
      vertex -36.875 -9.69846 -30.4113
      vertex 34.875 -12.2619 -28.1032
      vertex 34.875 -9.69846 -30.4113
    endloop
  endfacet
  facet normal 0 0.669131 0.743145
    outer loop
      vertex 34.875 -12.2619 -28.1032
      vertex -36.875 -9.69846 -30.4113
      vertex -36.875 -12.2619 -28.1032
    endloop
  endfacet
  facet normal 0 0.809018 0.587784
    outer loop
      vertex 34.875 -14.1416 -25.516
      vertex -36.875 -14.2894 -25.3125
      vertex 34.875 -14.2894 -25.3125
    endloop
  endfacet
  facet normal 3.62272e-09 0.809017 0.587785
    outer loop
      vertex -36.875 -14.2894 -25.3125
      vertex 34.875 -14.1416 -25.516
      vertex -36.875 -12.4097 -27.8997
    endloop
  endfacet
  facet normal -1.07736e-08 0.809017 0.587785
    outer loop
      vertex 34.875 -12.2619 -28.1032
      vertex -36.875 -12.4097 -27.8997
      vertex 34.875 -14.1416 -25.516
    endloop
  endfacet
  facet normal 0 0.809015 0.587788
    outer loop
      vertex -36.875 -12.4097 -27.8997
      vertex 34.875 -12.2619 -28.1032
      vertex -36.875 -12.2619 -28.1032
    endloop
  endfacet
  facet normal 0 0.913545 0.406738
    outer loop
      vertex 34.875 -15.6924 -22.1613
      vertex -36.875 -15.5901 -22.3911
      vertex -36.875 -15.6924 -22.1613
    endloop
  endfacet
  facet normal 5.92831e-09 0.913545 0.406737
    outer loop
      vertex -36.875 -15.5901 -22.3911
      vertex 34.875 -15.6924 -22.1613
      vertex 34.875 -14.3917 -25.0827
    endloop
  endfacet
  facet normal 0 0.978148 0.207912
    outer loop
      vertex 34.875 -16.1518 -20
      vertex 34.875 -15.6924 -22.1613
      vertex 32.9 -16.1518 -20
    endloop
  endfacet
  facet normal 0 0.978148 0.207911
    outer loop
      vertex 32.9 -16.1518 -20
      vertex -36.875 -16.4096 -18.7872
      vertex 32.9 -16.4096 -18.7872
    endloop
  endfacet
  facet normal -0 0.978148 0.207912
    outer loop
      vertex -36.875 -15.6924 -22.1613
      vertex 32.9 -16.1518 -20
      vertex 34.875 -15.6924 -22.1613
    endloop
  endfacet
  facet normal 9.14217e-09 0.978148 0.207912
    outer loop
      vertex 32.9 -16.1518 -20
      vertex -36.875 -15.6924 -22.1613
      vertex -36.875 -16.4096 -18.7872
    endloop
  endfacet
  facet normal 0 0.978148 -0.207912
    outer loop
      vertex 32.9 -16.4096 -15.3378
      vertex -36.875 -15.6924 -11.9637
      vertex 32.9 -15.6924 -11.9637
    endloop
  endfacet
  facet normal 0 0.978148 -0.207912
    outer loop
      vertex -36.875 -15.6924 -11.9637
      vertex 32.9 -16.4096 -15.3378
      vertex -36.875 -16.4096 -15.3378
    endloop
  endfacet
  facet normal 0 0.913545 -0.406738
    outer loop
      vertex -36.875 -15.6924 -11.9637
      vertex 32.9 -15.5571 -11.6599
      vertex 32.9 -15.6924 -11.9637
    endloop
  endfacet
  facet normal -8.37532e-09 0.913545 -0.406737
    outer loop
      vertex 32.9 -15.5571 -11.6599
      vertex -36.875 -15.6924 -11.9637
      vertex -36.875 -14.3917 -9.04228
    endloop
  endfacet
  facet normal 0 -0.195091 0.980785
    outer loop
      vertex 27.45 -11.3686 -1.5244
      vertex 34.875 -12 -1.65
      vertex 34.875 -11.3686 -1.5244
    endloop
  endfacet
  facet normal 0 -0.195091 0.980785
    outer loop
      vertex 34.875 -12 -1.65
      vertex 27.45 -11.3686 -1.5244
      vertex 27.45 -12 -1.65
    endloop
  endfacet
  facet normal 0 -0.195091 -0.980785
    outer loop
      vertex 27.45 -12 1.65
      vertex 34.875 -11.3686 1.5244
      vertex 34.875 -12 1.65
    endloop
  endfacet
  facet normal -0 -0.195091 -0.980785
    outer loop
      vertex 34.875 -11.3686 1.5244
      vertex 27.45 -12 1.65
      vertex 27.45 -11.3686 1.5244
    endloop
  endfacet
  facet normal -4.35478e-17 -0.980785 0.195091
    outer loop
      vertex 27.45 -10.4756 -0.631427
      vertex 34.875 -10.35 -2.77556e-17
      vertex 27.45 -10.35 -1.67644e-15
    endloop
  endfacet
  facet normal 0 -0.980785 0.195091
    outer loop
      vertex 34.875 -10.35 -2.77556e-17
      vertex 27.45 -10.4756 -0.631427
      vertex 34.875 -10.4756 -0.631427
    endloop
  endfacet
  facet normal 0 -0.555569 0.83147
    outer loop
      vertex 27.45 -10.8333 -1.16673
      vertex 34.875 -11.3686 -1.5244
      vertex 34.875 -10.8333 -1.16673
    endloop
  endfacet
  facet normal 0 -0.555569 0.83147
    outer loop
      vertex 34.875 -11.3686 -1.5244
      vertex 27.45 -10.8333 -1.16673
      vertex 27.45 -11.3686 -1.5244
    endloop
  endfacet
  facet normal 0 0.980785 -0.195091
    outer loop
      vertex 34.875 -13.65 -2.77556e-17
      vertex 27.45 -13.5244 0.631427
      vertex 34.875 -13.5244 0.631427
    endloop
  endfacet
  facet normal 4.35478e-17 0.980785 -0.195091
    outer loop
      vertex 27.45 -13.5244 0.631427
      vertex 34.875 -13.65 -2.77556e-17
      vertex 27.45 -13.65 -1.67644e-15
    endloop
  endfacet
  facet normal -4.35478e-17 0.980785 0.195091
    outer loop
      vertex 34.875 -13.5244 -0.631427
      vertex 27.45 -13.65 -1.67644e-15
      vertex 34.875 -13.65 -2.77556e-17
    endloop
  endfacet
  facet normal 0 0.980785 0.195091
    outer loop
      vertex 27.45 -13.65 -1.67644e-15
      vertex 34.875 -13.5244 -0.631427
      vertex 27.45 -13.5244 -0.631427
    endloop
  endfacet
  facet normal 1 0 0
    outer loop
      vertex 27.45 -10.4756 0.631427
      vertex 27.45 -10.4756 -0.631427
      vertex 27.45 -10.35 -1.67644e-15
    endloop
  endfacet
  facet normal 1 0 0
    outer loop
      vertex 27.45 -10.8333 1.16673
      vertex 27.45 -10.4756 -0.631427
      vertex 27.45 -10.4756 0.631427
    endloop
  endfacet
  facet normal 1 0 0
    outer loop
      vertex 27.45 -10.8333 1.16673
      vertex 27.45 -10.8333 -1.16673
      vertex 27.45 -10.4756 -0.631427
    endloop
  endfacet
  facet normal 1 0 0
    outer loop
      vertex 27.45 -11.3686 1.5244
      vertex 27.45 -10.8333 -1.16673
      vertex 27.45 -10.8333 1.16673
    endloop
  endfacet
  facet normal 1 0 0
    outer loop
      vertex 27.45 -11.3686 1.5244
      vertex 27.45 -11.3686 -1.5244
      vertex 27.45 -10.8333 -1.16673
    endloop
  endfacet
  facet normal 1 0 0
    outer loop
      vertex 27.45 -12 1.65
      vertex 27.45 -11.3686 -1.5244
      vertex 27.45 -11.3686 1.5244
    endloop
  endfacet
  facet normal 1 0 0
    outer loop
      vertex 27.45 -12 1.65
      vertex 27.45 -12 -1.65
      vertex 27.45 -11.3686 -1.5244
    endloop
  endfacet
  facet normal 1 -0 0
    outer loop
      vertex 27.45 -12.6314 1.5244
      vertex 27.45 -12 -1.65
      vertex 27.45 -12 1.65
    endloop
  endfacet
  facet normal 1 0 0
    outer loop
      vertex 27.45 -12.6314 1.5244
      vertex 27.45 -12.6314 -1.5244
      vertex 27.45 -12 -1.65
    endloop
  endfacet
  facet normal 1 -0 0
    outer loop
      vertex 27.45 -13.1667 1.16673
      vertex 27.45 -12.6314 -1.5244
      vertex 27.45 -12.6314 1.5244
    endloop
  endfacet
  facet normal 1 0 0
    outer loop
      vertex 27.45 -13.1667 1.16673
      vertex 27.45 -13.1667 -1.16673
      vertex 27.45 -12.6314 -1.5244
    endloop
  endfacet
  facet normal 1 -0 0
    outer loop
      vertex 27.45 -13.5244 0.631427
      vertex 27.45 -13.1667 -1.16673
      vertex 27.45 -13.1667 1.16673
    endloop
  endfacet
  facet normal 1 0 0
    outer loop
      vertex 27.45 -13.5244 0.631427
      vertex 27.45 -13.5244 -0.631427
      vertex 27.45 -13.1667 -1.16673
    endloop
  endfacet
  facet normal 1 0 -0
    outer loop
      vertex 27.45 -13.5244 -0.631427
      vertex 27.45 -13.5244 0.631427
      vertex 27.45 -13.65 -1.67644e-15
    endloop
  endfacet
  facet normal 0 -0.83147 0.555569
    outer loop
      vertex 27.45 -10.8333 -1.16673
      vertex 34.875 -10.4756 -0.631427
      vertex 27.45 -10.4756 -0.631427
    endloop
  endfacet
  facet normal 0 -0.83147 0.555569
    outer loop
      vertex 34.875 -10.4756 -0.631427
      vertex 27.45 -10.8333 -1.16673
      vertex 34.875 -10.8333 -1.16673
    endloop
  endfacet
  facet normal 0 -0.83147 -0.555569
    outer loop
      vertex 27.45 -10.4756 0.631427
      vertex 34.875 -10.8333 1.16673
      vertex 27.45 -10.8333 1.16673
    endloop
  endfacet
  facet normal 0 -0.83147 -0.555569
    outer loop
      vertex 34.875 -10.8333 1.16673
      vertex 27.45 -10.4756 0.631427
      vertex 34.875 -10.4756 0.631427
    endloop
  endfacet
  facet normal 0 -0.555569 -0.83147
    outer loop
      vertex 27.45 -11.3686 1.5244
      vertex 34.875 -10.8333 1.16673
      vertex 34.875 -11.3686 1.5244
    endloop
  endfacet
  facet normal -0 -0.555569 -0.83147
    outer loop
      vertex 34.875 -10.8333 1.16673
      vertex 27.45 -11.3686 1.5244
      vertex 27.45 -10.8333 1.16673
    endloop
  endfacet
  facet normal 0 -0.980785 -0.195091
    outer loop
      vertex 27.45 -10.4756 0.631427
      vertex 34.875 -10.35 -2.77556e-17
      vertex 34.875 -10.4756 0.631427
    endloop
  endfacet
  facet normal 4.33189e-17 -0.980785 -0.195091
    outer loop
      vertex 34.875 -10.35 -2.77556e-17
      vertex 27.45 -10.4756 0.631427
      vertex 27.45 -10.35 -1.67644e-15
    endloop
  endfacet
  facet normal 0 0.83147 -0.555569
    outer loop
      vertex 34.875 -13.5244 0.631427
      vertex 27.45 -13.1667 1.16673
      vertex 34.875 -13.1667 1.16673
    endloop
  endfacet
  facet normal 0 0.83147 -0.555569
    outer loop
      vertex 27.45 -13.1667 1.16673
      vertex 34.875 -13.5244 0.631427
      vertex 27.45 -13.5244 0.631427
    endloop
  endfacet
  facet normal 0 0.195091 -0.980785
    outer loop
      vertex 27.45 -12.6314 1.5244
      vertex 34.875 -12 1.65
      vertex 34.875 -12.6314 1.5244
    endloop
  endfacet
  facet normal 0 0.195091 -0.980785
    outer loop
      vertex 34.875 -12 1.65
      vertex 27.45 -12.6314 1.5244
      vertex 27.45 -12 1.65
    endloop
  endfacet
  facet normal -0 0.195091 0.980785
    outer loop
      vertex 27.45 -12 -1.65
      vertex 34.875 -12.6314 -1.5244
      vertex 34.875 -12 -1.65
    endloop
  endfacet
  facet normal 0 0.195091 0.980785
    outer loop
      vertex 34.875 -12.6314 -1.5244
      vertex 27.45 -12 -1.65
      vertex 27.45 -12.6314 -1.5244
    endloop
  endfacet
  facet normal 0 0.83147 0.555569
    outer loop
      vertex 34.875 -13.1667 -1.16673
      vertex 27.45 -13.5244 -0.631427
      vertex 34.875 -13.5244 -0.631427
    endloop
  endfacet
  facet normal 0 0.83147 0.555569
    outer loop
      vertex 27.45 -13.5244 -0.631427
      vertex 34.875 -13.1667 -1.16673
      vertex 27.45 -13.1667 -1.16673
    endloop
  endfacet
  facet normal -0 0.555569 0.83147
    outer loop
      vertex 27.45 -12.6314 -1.5244
      vertex 34.875 -13.1667 -1.16673
      vertex 34.875 -12.6314 -1.5244
    endloop
  endfacet
  facet normal 0 0.555569 0.83147
    outer loop
      vertex 34.875 -13.1667 -1.16673
      vertex 27.45 -12.6314 -1.5244
      vertex 27.45 -13.1667 -1.16673
    endloop
  endfacet
  facet normal 0 0.555569 -0.83147
    outer loop
      vertex 27.45 -13.1667 1.16673
      vertex 34.875 -12.6314 1.5244
      vertex 34.875 -13.1667 1.16673
    endloop
  endfacet
  facet normal 0 0.555569 -0.83147
    outer loop
      vertex 34.875 -12.6314 1.5244
      vertex 27.45 -13.1667 1.16673
      vertex 27.45 -12.6314 1.5244
    endloop
  endfacet
  facet normal 0 -0.195091 -0.980785
    outer loop
      vertex -36.875 -12 1.65
      vertex -27.45 -11.3686 1.5244
      vertex -27.45 -12 1.65
    endloop
  endfacet
  facet normal -0 -0.195091 -0.980785
    outer loop
      vertex -27.45 -11.3686 1.5244
      vertex -36.875 -12 1.65
      vertex -36.875 -11.3686 1.5244
    endloop
  endfacet
  facet normal 0 -0.195091 0.980785
    outer loop
      vertex -36.875 -11.3686 -1.5244
      vertex -27.45 -12 -1.65
      vertex -27.45 -11.3686 -1.5244
    endloop
  endfacet
  facet normal 0 -0.195091 0.980785
    outer loop
      vertex -27.45 -12 -1.65
      vertex -36.875 -11.3686 -1.5244
      vertex -36.875 -12 -1.65
    endloop
  endfacet
  facet normal 0 -0.980785 -0.195091
    outer loop
      vertex -36.875 -10.35 4.16334e-16
      vertex -27.45 -10.4756 0.631427
      vertex -36.875 -10.4756 0.631427
    endloop
  endfacet
  facet normal -4.34554e-17 -0.980785 -0.195091
    outer loop
      vertex -27.45 -10.4756 0.631427
      vertex -36.875 -10.35 4.16334e-16
      vertex -27.45 -10.35 -1.67644e-15
    endloop
  endfacet
  facet normal 0 -0.555569 -0.83147
    outer loop
      vertex -36.875 -11.3686 1.5244
      vertex -27.45 -10.8333 1.16673
      vertex -27.45 -11.3686 1.5244
    endloop
  endfacet
  facet normal -0 -0.555569 -0.83147
    outer loop
      vertex -27.45 -10.8333 1.16673
      vertex -36.875 -11.3686 1.5244
      vertex -36.875 -10.8333 1.16673
    endloop
  endfacet
  facet normal 4.34554e-17 0.980785 0.195091
    outer loop
      vertex -27.45 -13.5244 -0.631427
      vertex -36.875 -13.65 4.16334e-16
      vertex -27.45 -13.65 -1.67644e-15
    endloop
  endfacet
  facet normal 0 0.980785 0.195091
    outer loop
      vertex -36.875 -13.65 4.16334e-16
      vertex -27.45 -13.5244 -0.631427
      vertex -36.875 -13.5244 -0.631427
    endloop
  endfacet
  facet normal 0 0.980785 -0.195091
    outer loop
      vertex -27.45 -13.5244 0.631427
      vertex -36.875 -13.65 4.16334e-16
      vertex -36.875 -13.5244 0.631427
    endloop
  endfacet
  facet normal -4.33189e-17 0.980785 -0.195091
    outer loop
      vertex -36.875 -13.65 4.16334e-16
      vertex -27.45 -13.5244 0.631427
      vertex -27.45 -13.65 -1.67644e-15
    endloop
  endfacet
  facet normal -1 0 0
    outer loop
      vertex -27.45 -10.4756 -0.631427
      vertex -27.45 -10.4756 0.631427
      vertex -27.45 -10.35 -1.67644e-15
    endloop
  endfacet
  facet normal -1 0 0
    outer loop
      vertex -27.45 -10.8333 -1.16673
      vertex -27.45 -10.4756 0.631427
      vertex -27.45 -10.4756 -0.631427
    endloop
  endfacet
  facet normal -1 0 0
    outer loop
      vertex -27.45 -10.8333 -1.16673
      vertex -27.45 -10.8333 1.16673
      vertex -27.45 -10.4756 0.631427
    endloop
  endfacet
  facet normal -1 0 0
    outer loop
      vertex -27.45 -11.3686 -1.5244
      vertex -27.45 -10.8333 1.16673
      vertex -27.45 -10.8333 -1.16673
    endloop
  endfacet
  facet normal -1 0 0
    outer loop
      vertex -27.45 -11.3686 -1.5244
      vertex -27.45 -11.3686 1.5244
      vertex -27.45 -10.8333 1.16673
    endloop
  endfacet
  facet normal -1 0 0
    outer loop
      vertex -27.45 -12 -1.65
      vertex -27.45 -11.3686 1.5244
      vertex -27.45 -11.3686 -1.5244
    endloop
  endfacet
  facet normal -1 0 0
    outer loop
      vertex -27.45 -12 -1.65
      vertex -27.45 -12 1.65
      vertex -27.45 -11.3686 1.5244
    endloop
  endfacet
  facet normal -1 0 0
    outer loop
      vertex -27.45 -12.6314 -1.5244
      vertex -27.45 -12 1.65
      vertex -27.45 -12 -1.65
    endloop
  endfacet
  facet normal -1 0 0
    outer loop
      vertex -27.45 -12.6314 -1.5244
      vertex -27.45 -12.6314 1.5244
      vertex -27.45 -12 1.65
    endloop
  endfacet
  facet normal -1 0 0
    outer loop
      vertex -27.45 -13.1667 -1.16673
      vertex -27.45 -12.6314 1.5244
      vertex -27.45 -12.6314 -1.5244
    endloop
  endfacet
  facet normal -1 0 0
    outer loop
      vertex -27.45 -13.1667 -1.16673
      vertex -27.45 -13.1667 1.16673
      vertex -27.45 -12.6314 1.5244
    endloop
  endfacet
  facet normal -1 0 0
    outer loop
      vertex -27.45 -13.5244 -0.631427
      vertex -27.45 -13.1667 1.16673
      vertex -27.45 -13.1667 -1.16673
    endloop
  endfacet
  facet normal -1 0 0
    outer loop
      vertex -27.45 -13.5244 -0.631427
      vertex -27.45 -13.5244 0.631427
      vertex -27.45 -13.1667 1.16673
    endloop
  endfacet
  facet normal -1 0 -0
    outer loop
      vertex -27.45 -13.5244 0.631427
      vertex -27.45 -13.5244 -0.631427
      vertex -27.45 -13.65 -1.67644e-15
    endloop
  endfacet
  facet normal 0 -0.83147 -0.555569
    outer loop
      vertex -36.875 -10.4756 0.631427
      vertex -27.45 -10.8333 1.16673
      vertex -36.875 -10.8333 1.16673
    endloop
  endfacet
  facet normal 0 -0.83147 -0.555569
    outer loop
      vertex -27.45 -10.8333 1.16673
      vertex -36.875 -10.4756 0.631427
      vertex -27.45 -10.4756 0.631427
    endloop
  endfacet
  facet normal 0 -0.83147 0.555569
    outer loop
      vertex -36.875 -10.8333 -1.16673
      vertex -27.45 -10.4756 -0.631427
      vertex -36.875 -10.4756 -0.631427
    endloop
  endfacet
  facet normal 0 -0.83147 0.555569
    outer loop
      vertex -27.45 -10.4756 -0.631427
      vertex -36.875 -10.8333 -1.16673
      vertex -27.45 -10.8333 -1.16673
    endloop
  endfacet
  facet normal 0 -0.555569 0.83147
    outer loop
      vertex -36.875 -10.8333 -1.16673
      vertex -27.45 -11.3686 -1.5244
      vertex -27.45 -10.8333 -1.16673
    endloop
  endfacet
  facet normal 0 -0.555569 0.83147
    outer loop
      vertex -27.45 -11.3686 -1.5244
      vertex -36.875 -10.8333 -1.16673
      vertex -36.875 -11.3686 -1.5244
    endloop
  endfacet
  facet normal 4.34554e-17 -0.980785 0.195091
    outer loop
      vertex -36.875 -10.4756 -0.631427
      vertex -27.45 -10.35 -1.67644e-15
      vertex -36.875 -10.35 4.16334e-16
    endloop
  endfacet
  facet normal 0 -0.980785 0.195091
    outer loop
      vertex -27.45 -10.35 -1.67644e-15
      vertex -36.875 -10.4756 -0.631427
      vertex -27.45 -10.4756 -0.631427
    endloop
  endfacet
  facet normal 0 0.83147 0.555569
    outer loop
      vertex -27.45 -13.1667 -1.16673
      vertex -36.875 -13.5244 -0.631427
      vertex -27.45 -13.5244 -0.631427
    endloop
  endfacet
  facet normal 0 0.83147 0.555569
    outer loop
      vertex -36.875 -13.5244 -0.631427
      vertex -27.45 -13.1667 -1.16673
      vertex -36.875 -13.1667 -1.16673
    endloop
  endfacet
  facet normal -0 0.195091 0.980785
    outer loop
      vertex -36.875 -12 -1.65
      vertex -27.45 -12.6314 -1.5244
      vertex -27.45 -12 -1.65
    endloop
  endfacet
  facet normal 0 0.195091 0.980785
    outer loop
      vertex -27.45 -12.6314 -1.5244
      vertex -36.875 -12 -1.65
      vertex -36.875 -12.6314 -1.5244
    endloop
  endfacet
  facet normal 0 0.195091 -0.980785
    outer loop
      vertex -36.875 -12.6314 1.5244
      vertex -27.45 -12 1.65
      vertex -27.45 -12.6314 1.5244
    endloop
  endfacet
  facet normal 0 0.195091 -0.980785
    outer loop
      vertex -27.45 -12 1.65
      vertex -36.875 -12.6314 1.5244
      vertex -36.875 -12 1.65
    endloop
  endfacet
  facet normal 0 0.83147 -0.555569
    outer loop
      vertex -27.45 -13.5244 0.631427
      vertex -36.875 -13.1667 1.16673
      vertex -27.45 -13.1667 1.16673
    endloop
  endfacet
  facet normal 0 0.83147 -0.555569
    outer loop
      vertex -36.875 -13.1667 1.16673
      vertex -27.45 -13.5244 0.631427
      vertex -36.875 -13.5244 0.631427
    endloop
  endfacet
  facet normal 0 0.555569 -0.83147
    outer loop
      vertex -36.875 -13.1667 1.16673
      vertex -27.45 -12.6314 1.5244
      vertex -27.45 -13.1667 1.16673
    endloop
  endfacet
  facet normal 0 0.555569 -0.83147
    outer loop
      vertex -27.45 -12.6314 1.5244
      vertex -36.875 -13.1667 1.16673
      vertex -36.875 -12.6314 1.5244
    endloop
  endfacet
  facet normal -0 0.555569 0.83147
    outer loop
      vertex -36.875 -12.6314 -1.5244
      vertex -27.45 -13.1667 -1.16673
      vertex -27.45 -12.6314 -1.5244
    endloop
  endfacet
  facet normal 0 0.555569 0.83147
    outer loop
      vertex -27.45 -13.1667 -1.16673
      vertex -36.875 -12.6314 -1.5244
      vertex -36.875 -13.1667 -1.16673
    endloop
  endfacet
  facet normal -1 0 0
    outer loop
      vertex -36.875 -8 -34
      vertex -36.875 -9.69846 -30.4113
      vertex -36.875 -8 -31.3919
    endloop
  endfacet
  facet normal -1 0 0
    outer loop
      vertex -36.875 -18 -34
      vertex -36.875 -9.69846 -30.4113
      vertex -36.875 -8 -34
    endloop
  endfacet
  facet normal -1 -0 0
    outer loop
      vertex -36.875 -9.69846 -30.4113
      vertex -36.875 -18 -34
      vertex -36.875 -12.2619 -28.1032
    endloop
  endfacet
  facet normal -1 -0 0
    outer loop
      vertex -36.875 -12.2619 -28.1032
      vertex -36.875 -18 -34
      vertex -36.875 -12.4097 -27.8997
    endloop
  endfacet
  facet normal -1 0 0
    outer loop
      vertex -36.875 -18 -34
      vertex -36.875 -15.5901 -22.3911
      vertex -36.875 -14.2894 -25.3125
    endloop
  endfacet
  facet normal -1 0 0
    outer loop
      vertex -36.875 -23.3516 -36
      vertex -36.875 -16.4096 -15.3378
      vertex -36.875 -16.4096 -18.7872
    endloop
  endfacet
  facet normal -1 -0 0
    outer loop
      vertex -36.875 -16.4096 -15.3378
      vertex -36.875 -23.3516 -36
      vertex -36.875 -16.4096 15.3378
    endloop
  endfacet
  facet normal -1 -0 0
    outer loop
      vertex -36.875 -15.6924 -22.1613
      vertex -36.875 -23.3516 -36
      vertex -36.875 -16.4096 -18.7872
    endloop
  endfacet
  facet normal -1 -0 0
    outer loop
      vertex -36.875 -15.5901 -22.3911
      vertex -36.875 -23.3516 -36
      vertex -36.875 -15.6924 -22.1613
    endloop
  endfacet
  facet normal -1 0 0
    outer loop
      vertex -36.875 -23.3516 -36
      vertex -36.875 -15.5901 -22.3911
      vertex -36.875 -18 -34
    endloop
  endfacet
  facet normal -1 -0 0
    outer loop
      vertex -36.875 -12.4097 -27.8997
      vertex -36.875 -18 -34
      vertex -36.875 -14.2894 -25.3125
    endloop
  endfacet
  facet normal -1 0 0
    outer loop
      vertex -36.875 -9.69846 30.4113
      vertex -36.875 -8 34
      vertex -36.875 -8 31.3919
    endloop
  endfacet
  facet normal -1 0 0
    outer loop
      vertex -36.875 -18 34
      vertex -36.875 -9.69846 30.4113
      vertex -36.875 -12.2619 28.1032
    endloop
  endfacet
  facet normal -1 0 0
    outer loop
      vertex -36.875 -18 34
      vertex -36.875 -12.2619 28.1032
      vertex -36.875 -14.1416 25.516
    endloop
  endfacet
  facet normal -1 0 0
    outer loop
      vertex -36.875 -18 34
      vertex -36.875 -14.1416 25.516
      vertex -36.875 -14.2894 25.3125
    endloop
  endfacet
  facet normal -1 0 0
    outer loop
      vertex -36.875 -9.69846 30.4113
      vertex -36.875 -18 34
      vertex -36.875 -8 34
    endloop
  endfacet
  facet normal -1 0 0
    outer loop
      vertex -36.875 -14.3917 25.0827
      vertex -36.875 -18 34
      vertex -36.875 -14.2894 25.3125
    endloop
  endfacet
  facet normal -1 0 0
    outer loop
      vertex -36.875 -15.6924 22.1613
      vertex -36.875 -18 34
      vertex -36.875 -14.3917 25.0827
    endloop
  endfacet
  facet normal -1 0 0
    outer loop
      vertex -36.875 -23.3516 36
      vertex -36.875 -15.6924 22.1613
      vertex -36.875 -16.4096 18.7872
    endloop
  endfacet
  facet normal -1 0 0
    outer loop
      vertex -36.875 -23.3516 36
      vertex -36.875 -16.4096 15.3378
      vertex -36.875 -23.3516 -36
    endloop
  endfacet
  facet normal -1 0 0
    outer loop
      vertex -36.875 -23.3516 -36
      vertex -36.875 -18 -34
      vertex -36.875 -18 -36
    endloop
  endfacet
  facet normal -1 0 0
    outer loop
      vertex -36.875 -16.4096 15.3378
      vertex -36.875 -23.3516 36
      vertex -36.875 -16.4096 18.7872
    endloop
  endfacet
  facet normal -1 0 0
    outer loop
      vertex -36.875 -15.6924 22.1613
      vertex -36.875 -23.3516 36
      vertex -36.875 -18 34
    endloop
  endfacet
  facet normal -1 0 0
    outer loop
      vertex -36.875 -18 34
      vertex -36.875 -23.3516 36
      vertex -36.875 -18 36
    endloop
  endfacet
  facet normal -1 0 0
    outer loop
      vertex -36.875 -10.8333 -1.16673
      vertex -36.875 -8 -2.73312
      vertex -36.875 -9.69846 -3.71372
    endloop
  endfacet
  facet normal -1 0 0
    outer loop
      vertex -36.875 -8 -2.73312
      vertex -36.875 -10.35 4.16334e-16
      vertex -36.875 -8 2.73312
    endloop
  endfacet
  facet normal -1 0 0
    outer loop
      vertex -36.875 -10.4756 0.631427
      vertex -36.875 -8 2.73312
      vertex -36.875 -10.35 4.16334e-16
    endloop
  endfacet
  facet normal -1 0 0
    outer loop
      vertex -36.875 -8 -2.73312
      vertex -36.875 -10.4756 -0.631427
      vertex -36.875 -10.35 4.16334e-16
    endloop
  endfacet
  facet normal -1 0 0
    outer loop
      vertex -36.875 -8 -2.73312
      vertex -36.875 -10.8333 -1.16673
      vertex -36.875 -10.4756 -0.631427
    endloop
  endfacet
  facet normal -1 0 0
    outer loop
      vertex -36.875 -9.69846 -3.71372
      vertex -36.875 -11.3686 -1.5244
      vertex -36.875 -10.8333 -1.16673
    endloop
  endfacet
  facet normal -1 0 0
    outer loop
      vertex -36.875 -9.69846 -3.71372
      vertex -36.875 -12 -1.65
      vertex -36.875 -11.3686 -1.5244
    endloop
  endfacet
  facet normal -1 0 0
    outer loop
      vertex -36.875 -12.2619 -6.02184
      vertex -36.875 -12 -1.65
      vertex -36.875 -9.69846 -3.71372
    endloop
  endfacet
  facet normal -1 0 0
    outer loop
      vertex -36.875 -12.2619 -6.02184
      vertex -36.875 -12.6314 -1.5244
      vertex -36.875 -12 -1.65
    endloop
  endfacet
  facet normal -1 0 0
    outer loop
      vertex -36.875 -12.2619 -6.02184
      vertex -36.875 -13.1667 -1.16673
      vertex -36.875 -12.6314 -1.5244
    endloop
  endfacet
  facet normal -1 0 0
    outer loop
      vertex -36.875 -14.1416 -8.60901
      vertex -36.875 -13.1667 -1.16673
      vertex -36.875 -12.2619 -6.02184
    endloop
  endfacet
  facet normal -1 0 0
    outer loop
      vertex -36.875 -14.2894 -8.8125
      vertex -36.875 -13.5244 -0.631427
      vertex -36.875 -14.1416 -8.60901
    endloop
  endfacet
  facet normal -1 -0 0
    outer loop
      vertex -36.875 -13.1667 -1.16673
      vertex -36.875 -14.1416 -8.60901
      vertex -36.875 -13.5244 -0.631427
    endloop
  endfacet
  facet normal -1 0 0
    outer loop
      vertex -36.875 -10.8333 1.16673
      vertex -36.875 -8 2.73312
      vertex -36.875 -10.4756 0.631427
    endloop
  endfacet
  facet normal -1 -0 0
    outer loop
      vertex -36.875 -8 2.73312
      vertex -36.875 -10.8333 1.16673
      vertex -36.875 -9.69846 3.71372
    endloop
  endfacet
  facet normal -1 0 0
    outer loop
      vertex -36.875 -11.3686 1.5244
      vertex -36.875 -9.69846 3.71372
      vertex -36.875 -10.8333 1.16673
    endloop
  endfacet
  facet normal -1 0 0
    outer loop
      vertex -36.875 -12 1.65
      vertex -36.875 -9.69846 3.71372
      vertex -36.875 -11.3686 1.5244
    endloop
  endfacet
  facet normal -1 0 0
    outer loop
      vertex -36.875 -12 1.65
      vertex -36.875 -12.2619 6.02184
      vertex -36.875 -9.69846 3.71372
    endloop
  endfacet
  facet normal -1 0 0
    outer loop
      vertex -36.875 -12.6314 1.5244
      vertex -36.875 -12.2619 6.02184
      vertex -36.875 -12 1.65
    endloop
  endfacet
  facet normal -1 0 0
    outer loop
      vertex -36.875 -13.1667 1.16673
      vertex -36.875 -12.2619 6.02184
      vertex -36.875 -12.6314 1.5244
    endloop
  endfacet
  facet normal -1 -0 0
    outer loop
      vertex -36.875 -12.2619 6.02184
      vertex -36.875 -13.1667 1.16673
      vertex -36.875 -12.4097 6.22533
    endloop
  endfacet
  facet normal -1 0 0
    outer loop
      vertex -36.875 -14.2894 8.8125
      vertex -36.875 -13.1667 1.16673
      vertex -36.875 -13.5244 0.631427
    endloop
  endfacet
  facet normal -1 0 0
    outer loop
      vertex -36.875 -14.3917 -9.04228
      vertex -36.875 -13.5244 -0.631427
      vertex -36.875 -14.2894 -8.8125
    endloop
  endfacet
  facet normal -1 0 0
    outer loop
      vertex -36.875 -13.1667 1.16673
      vertex -36.875 -14.2894 8.8125
      vertex -36.875 -12.4097 6.22533
    endloop
  endfacet
  facet normal -1 0 0
    outer loop
      vertex -36.875 -13.65 4.16334e-16
      vertex -36.875 -14.2894 8.8125
      vertex -36.875 -13.5244 0.631427
    endloop
  endfacet
  facet normal -1 -0 0
    outer loop
      vertex -36.875 -13.5244 -0.631427
      vertex -36.875 -14.3917 -9.04228
      vertex -36.875 -13.65 4.16334e-16
    endloop
  endfacet
  facet normal -1 0 0
    outer loop
      vertex -36.875 -15.6924 -11.9637
      vertex -36.875 -13.65 4.16334e-16
      vertex -36.875 -14.3917 -9.04228
    endloop
  endfacet
  facet normal -1 0 0
    outer loop
      vertex -36.875 -13.65 4.16334e-16
      vertex -36.875 -15.5901 11.7339
      vertex -36.875 -14.2894 8.8125
    endloop
  endfacet
  facet normal -1 0 0
    outer loop
      vertex -36.875 -15.6924 11.9637
      vertex -36.875 -13.65 4.16334e-16
      vertex -36.875 -15.6924 -11.9637
    endloop
  endfacet
  facet normal -1 0 0
    outer loop
      vertex -36.875 -13.65 4.16334e-16
      vertex -36.875 -15.6924 11.9637
      vertex -36.875 -15.5901 11.7339
    endloop
  endfacet
  facet normal -1 0 0
    outer loop
      vertex -36.875 -16.4096 -15.3378
      vertex -36.875 -15.6924 11.9637
      vertex -36.875 -15.6924 -11.9637
    endloop
  endfacet
  facet normal -1 -0 0
    outer loop
      vertex -36.875 -15.6924 11.9637
      vertex -36.875 -16.4096 -15.3378
      vertex -36.875 -16.4096 15.3378
    endloop
  endfacet
  facet normal -0 0 1
    outer loop
      vertex -36.875 -8 34
      vertex 34.875 -18 34
      vertex 34.875 -8 34
    endloop
  endfacet
  facet normal 0 0 1
    outer loop
      vertex 34.875 -18 34
      vertex -36.875 -8 34
      vertex -36.875 -18 34
    endloop
  endfacet
  facet normal 1 0 0
    outer loop
      vertex 34.875 -8 34
      vertex 34.875 -9.69846 30.4113
      vertex 34.875 -8 31.3919
    endloop
  endfacet
  facet normal 1 -0 0
    outer loop
      vertex 34.875 -18 34
      vertex 34.875 -9.69846 30.4113
      vertex 34.875 -8 34
    endloop
  endfacet
  facet normal 1 0 0
    outer loop
      vertex 34.875 -9.69846 30.4113
      vertex 34.875 -18 34
      vertex 34.875 -12.2619 28.1032
    endloop
  endfacet
  facet normal 1 0 0
    outer loop
      vertex 34.875 -12.2619 28.1032
      vertex 34.875 -18 34
      vertex 34.875 -12.4097 27.8997
    endloop
  endfacet
  facet normal 1 0 0
    outer loop
      vertex 34.875 -18 34
      vertex 34.875 -15.5901 22.3911
      vertex 34.875 -14.2894 25.3125
    endloop
  endfacet
  facet normal 1 0 0
    outer loop
      vertex 34.875 -15.6924 22.1613
      vertex 34.875 -17.2344 20
      vertex 34.875 -16.1518 20
    endloop
  endfacet
  facet normal 1 0 -0
    outer loop
      vertex 34.875 -17.2344 20
      vertex 34.875 -15.5901 22.3911
      vertex 34.875 -18 34
    endloop
  endfacet
  facet normal 1 0 0
    outer loop
      vertex 34.875 -17.4157 18.7778
      vertex 34.875 -21.1314 36
      vertex 34.875 -17.5 17.0625
    endloop
  endfacet
  facet normal 1 0 0
    outer loop
      vertex 34.875 -17.2344 20
      vertex 34.875 -21.1314 36
      vertex 34.875 -17.4157 18.7778
    endloop
  endfacet
  facet normal 1 0 0
    outer loop
      vertex 34.875 -21.1314 36
      vertex 34.875 -17.2344 20
      vertex 34.875 -18 34
    endloop
  endfacet
  facet normal 1 0 0
    outer loop
      vertex 34.875 -15.5901 22.3911
      vertex 34.875 -17.2344 20
      vertex 34.875 -15.6924 22.1613
    endloop
  endfacet
  facet normal 1 0 0
    outer loop
      vertex 34.875 -12.4097 27.8997
      vertex 34.875 -18 34
      vertex 34.875 -14.2894 25.3125
    endloop
  endfacet
  facet normal 1 0 0
    outer loop
      vertex 34.875 -9.69846 -30.4113
      vertex 34.875 -8 -34
      vertex 34.875 -8 -31.3919
    endloop
  endfacet
  facet normal 1 0 0
    outer loop
      vertex 34.875 -18 -34
      vertex 34.875 -9.69846 -30.4113
      vertex 34.875 -12.2619 -28.1032
    endloop
  endfacet
  facet normal 1 0 0
    outer loop
      vertex 34.875 -18 -34
      vertex 34.875 -12.2619 -28.1032
      vertex 34.875 -14.1416 -25.516
    endloop
  endfacet
  facet normal 1 0 0
    outer loop
      vertex 34.875 -18 -34
      vertex 34.875 -14.1416 -25.516
      vertex 34.875 -14.2894 -25.3125
    endloop
  endfacet
  facet normal 1 -0 0
    outer loop
      vertex 34.875 -17.2344 -20
      vertex 34.875 -15.6924 -22.1613
      vertex 34.875 -16.1518 -20
    endloop
  endfacet
  facet normal 1 0 0
    outer loop
      vertex 34.875 -18 -34
      vertex 34.875 -15.6924 -22.1613
      vertex 34.875 -17.2344 -20
    endloop
  endfacet
  facet normal 1 0 0
    outer loop
      vertex 34.875 -15.6924 -22.1613
      vertex 34.875 -18 -34
      vertex 34.875 -14.3917 -25.0827
    endloop
  endfacet
  facet normal 1 0 0
    outer loop
      vertex 34.875 -9.69846 -30.4113
      vertex 34.875 -18 -34
      vertex 34.875 -8 -34
    endloop
  endfacet
  facet normal 1 0 0
    outer loop
      vertex 34.875 -14.3917 -25.0827
      vertex 34.875 -18 -34
      vertex 34.875 -14.2894 -25.3125
    endloop
  endfacet
  facet normal 1 0 0
    outer loop
      vertex 34.875 -21.1314 -36
      vertex 34.875 -17.2344 -20
      vertex 34.875 -17.4157 -18.7778
    endloop
  endfacet
  facet normal 1 0 0
    outer loop
      vertex 34.875 -21.1314 -36
      vertex 34.875 -17.4157 -18.7778
      vertex 34.875 -17.5 -17.0625
    endloop
  endfacet
  facet normal 1 0 0
    outer loop
      vertex 34.875 -17.5 17.0625
      vertex 34.875 -18.5161 4
      vertex 34.875 -17.5 -17.0625
    endloop
  endfacet
  facet normal 1 -0 0
    outer loop
      vertex 34.875 -21.1314 36
      vertex 34.875 -18 34
      vertex 34.875 -18 36
    endloop
  endfacet
  facet normal 1 -0 0
    outer loop
      vertex 34.875 -18.5161 -4
      vertex 34.875 -17.5 -17.0625
      vertex 34.875 -18.5161 4
    endloop
  endfacet
  facet normal 1 -0 0
    outer loop
      vertex 34.875 -21.1314 -4
      vertex 34.875 -17.5 -17.0625
      vertex 34.875 -18.5161 -4
    endloop
  endfacet
  facet normal 1 0 0
    outer loop
      vertex 34.875 -17.5 17.0625
      vertex 34.875 -21.1314 36
      vertex 34.875 -21.1314 4
    endloop
  endfacet
  facet normal 1 0 0
    outer loop
      vertex 34.875 -17.5 17.0625
      vertex 34.875 -21.1314 4
      vertex 34.875 -18.5161 4
    endloop
  endfacet
  facet normal 1 0 0
    outer loop
      vertex 34.875 -21.1314 -36
      vertex 34.875 -17.5 -17.0625
      vertex 34.875 -21.1314 -4
    endloop
  endfacet
  facet normal 1 0 0
    outer loop
      vertex 34.875 -17.2344 -20
      vertex 34.875 -21.1314 -36
      vertex 34.875 -18 -34
    endloop
  endfacet
  facet normal 1 0 0
    outer loop
      vertex 34.875 -18 -34
      vertex 34.875 -21.1314 -36
      vertex 34.875 -18 -36
    endloop
  endfacet
  facet normal 1 0 0
    outer loop
      vertex 34.875 -10.35 -2.77556e-17
      vertex 34.875 -8 1.5109
      vertex 34.875 -8.24944 1.62888
    endloop
  endfacet
  facet normal 1 0 0
    outer loop
      vertex 34.875 -8 1.5109
      vertex 34.875 -10.35 -2.77556e-17
      vertex 34.875 -8 -1.5109
    endloop
  endfacet
  facet normal 1 0 0
    outer loop
      vertex 34.875 -10.4756 0.631427
      vertex 34.875 -8.24944 1.62888
      vertex 34.875 -9.72248 2.51178
    endloop
  endfacet
  facet normal 1 0 0
    outer loop
      vertex 34.875 -8 -1.5109
      vertex 34.875 -10.35 -2.77556e-17
      vertex 34.875 -8.24944 -1.62888
    endloop
  endfacet
  facet normal 1 -0 0
    outer loop
      vertex 34.875 -10.4756 -0.631427
      vertex 34.875 -8.24944 -1.62888
      vertex 34.875 -10.35 -2.77556e-17
    endloop
  endfacet
  facet normal 1 0 0
    outer loop
      vertex 34.875 -8.24944 1.62888
      vertex 34.875 -10.4756 0.631427
      vertex 34.875 -10.35 -2.77556e-17
    endloop
  endfacet
  facet normal 1 0 0
    outer loop
      vertex 34.875 -9.72248 2.51178
      vertex 34.875 -10.8333 1.16673
      vertex 34.875 -10.4756 0.631427
    endloop
  endfacet
  facet normal 1 0 0
    outer loop
      vertex 34.875 -11.3686 1.5244
      vertex 34.875 -9.72248 2.51178
      vertex 34.875 -11.1019 3.53482
    endloop
  endfacet
  facet normal 1 0 0
    outer loop
      vertex 34.875 -9.72248 2.51178
      vertex 34.875 -11.3686 1.5244
      vertex 34.875 -10.8333 1.16673
    endloop
  endfacet
  facet normal 1 0 0
    outer loop
      vertex 34.875 -11.1019 3.53482
      vertex 34.875 -12 1.65
      vertex 34.875 -11.3686 1.5244
    endloop
  endfacet
  facet normal 1 0 0
    outer loop
      vertex 34.875 -12.6314 1.5244
      vertex 34.875 -11.1019 3.53482
      vertex 34.875 -12.3744 4.68813
    endloop
  endfacet
  facet normal 1 0 0
    outer loop
      vertex 34.875 -11.1019 3.53482
      vertex 34.875 -12.6314 1.5244
      vertex 34.875 -12 1.65
    endloop
  endfacet
  facet normal 1 0 0
    outer loop
      vertex 34.875 -12.3744 4.68813
      vertex 34.875 -13.1667 1.16673
      vertex 34.875 -12.6314 1.5244
    endloop
  endfacet
  facet normal 1 0 0
    outer loop
      vertex 34.875 -13.5277 5.96062
      vertex 34.875 -13.1667 1.16673
      vertex 34.875 -12.3744 4.68813
    endloop
  endfacet
  facet normal 1 0 0
    outer loop
      vertex 34.875 -13.1667 1.16673
      vertex 34.875 -13.5277 5.96062
      vertex 34.875 -13.5244 0.631427
    endloop
  endfacet
  facet normal 1 0 0
    outer loop
      vertex 34.875 -14.5507 7.34002
      vertex 34.875 -13.5244 0.631427
      vertex 34.875 -13.5277 5.96062
    endloop
  endfacet
  facet normal 1 0 0
    outer loop
      vertex 34.875 -13.5244 0.631427
      vertex 34.875 -14.5507 7.34002
      vertex 34.875 -13.65 -2.77556e-17
    endloop
  endfacet
  facet normal 1 0 0
    outer loop
      vertex 34.875 -8.24944 -1.62888
      vertex 34.875 -10.4756 -0.631427
      vertex 34.875 -9.72248 -2.51178
    endloop
  endfacet
  facet normal 1 -0 0
    outer loop
      vertex 34.875 -10.8333 -1.16673
      vertex 34.875 -9.72248 -2.51178
      vertex 34.875 -10.4756 -0.631427
    endloop
  endfacet
  facet normal 1 -0 0
    outer loop
      vertex 34.875 -11.3686 -1.5244
      vertex 34.875 -9.72248 -2.51178
      vertex 34.875 -10.8333 -1.16673
    endloop
  endfacet
  facet normal 1 0 0
    outer loop
      vertex 34.875 -9.72248 -2.51178
      vertex 34.875 -11.3686 -1.5244
      vertex 34.875 -11.1019 -3.53482
    endloop
  endfacet
  facet normal 1 -0 0
    outer loop
      vertex 34.875 -12 -1.65
      vertex 34.875 -11.1019 -3.53482
      vertex 34.875 -11.3686 -1.5244
    endloop
  endfacet
  facet normal 1 0 0
    outer loop
      vertex 34.875 -12.6314 -1.5244
      vertex 34.875 -11.1019 -3.53482
      vertex 34.875 -12 -1.65
    endloop
  endfacet
  facet normal 1 0 0
    outer loop
      vertex 34.875 -11.1019 -3.53482
      vertex 34.875 -12.6314 -1.5244
      vertex 34.875 -12.3744 -4.68813
    endloop
  endfacet
  facet normal 1 0 0
    outer loop
      vertex 34.875 -13.1667 -1.16673
      vertex 34.875 -12.3744 -4.68813
      vertex 34.875 -12.6314 -1.5244
    endloop
  endfacet
  facet normal 1 0 0
    outer loop
      vertex 34.875 -13.5277 -5.96062
      vertex 34.875 -13.1667 -1.16673
      vertex 34.875 -13.5244 -0.631427
    endloop
  endfacet
  facet normal 1 0 0
    outer loop
      vertex 34.875 -13.1667 -1.16673
      vertex 34.875 -13.5277 -5.96062
      vertex 34.875 -12.3744 -4.68813
    endloop
  endfacet
  facet normal 1 0 0
    outer loop
      vertex 34.875 -14.5507 -7.34002
      vertex 34.875 -13.5244 -0.631427
      vertex 34.875 -13.65 -2.77556e-17
    endloop
  endfacet
  facet normal 1 0 0
    outer loop
      vertex 34.875 -15.4336 8.81306
      vertex 34.875 -13.65 -2.77556e-17
      vertex 34.875 -14.5507 7.34002
    endloop
  endfacet
  facet normal 1 0 0
    outer loop
      vertex 34.875 -13.5244 -0.631427
      vertex 34.875 -14.5507 -7.34002
      vertex 34.875 -13.5277 -5.96062
    endloop
  endfacet
  facet normal 1 0 0
    outer loop
      vertex 34.875 -15.4336 -8.81306
      vertex 34.875 -13.65 -2.77556e-17
      vertex 34.875 -15.4336 8.81306
    endloop
  endfacet
  facet normal 1 0 0
    outer loop
      vertex 34.875 -13.65 -2.77556e-17
      vertex 34.875 -15.4336 -8.81306
      vertex 34.875 -14.5507 -7.34002
    endloop
  endfacet
  facet normal 1 0 0
    outer loop
      vertex 34.875 -16.1679 10.3655
      vertex 34.875 -15.4336 -8.81306
      vertex 34.875 -15.4336 8.81306
    endloop
  endfacet
  facet normal 1 0 0
    outer loop
      vertex 34.875 -16.1679 10.3655
      vertex 34.875 -16.1679 -10.3655
      vertex 34.875 -15.4336 -8.81306
    endloop
  endfacet
  facet normal 1 0 0
    outer loop
      vertex 34.875 -16.7465 11.9825
      vertex 34.875 -16.1679 -10.3655
      vertex 34.875 -16.1679 10.3655
    endloop
  endfacet
  facet normal 1 0 0
    outer loop
      vertex 34.875 -16.7465 11.9825
      vertex 34.875 -16.7465 -11.9825
      vertex 34.875 -16.1679 -10.3655
    endloop
  endfacet
  facet normal 1 0 0
    outer loop
      vertex 34.875 -17.1637 13.6484
      vertex 34.875 -16.7465 -11.9825
      vertex 34.875 -16.7465 11.9825
    endloop
  endfacet
  facet normal 1 0 0
    outer loop
      vertex 34.875 -17.1637 13.6484
      vertex 34.875 -17.1637 -13.6484
      vertex 34.875 -16.7465 -11.9825
    endloop
  endfacet
  facet normal 1 0 0
    outer loop
      vertex 34.875 -17.4157 15.3472
      vertex 34.875 -17.1637 -13.6484
      vertex 34.875 -17.1637 13.6484
    endloop
  endfacet
  facet normal 1 0 0
    outer loop
      vertex 34.875 -17.4157 15.3472
      vertex 34.875 -17.4157 -15.3472
      vertex 34.875 -17.1637 -13.6484
    endloop
  endfacet
  facet normal 1 0 0
    outer loop
      vertex 34.875 -17.5 17.0625
      vertex 34.875 -17.4157 -15.3472
      vertex 34.875 -17.4157 15.3472
    endloop
  endfacet
  facet normal 1 0 0
    outer loop
      vertex 34.875 -17.4157 -15.3472
      vertex 34.875 -17.5 17.0625
      vertex 34.875 -17.5 -17.0625
    endloop
  endfacet
  facet normal 0 1 -0
    outer loop
      vertex 34.875 -8 31.3919
      vertex -36.875 -8 34
      vertex 34.875 -8 34
    endloop
  endfacet
  facet normal 0 1 0
    outer loop
      vertex -36.875 -8 34
      vertex 34.875 -8 31.3919
      vertex -36.875 -8 31.3919
    endloop
  endfacet
  facet normal 0 1 -0
    outer loop
      vertex 34.875 -8 -34
      vertex -36.875 -8 -31.3919
      vertex 34.875 -8 -31.3919
    endloop
  endfacet
  facet normal 0 1 0
    outer loop
      vertex -36.875 -8 -31.3919
      vertex 34.875 -8 -34
      vertex -36.875 -8 -34
    endloop
  endfacet
  facet normal 0 1 -0
    outer loop
      vertex 18.45 -8 -2.73312
      vertex -36.875 -8 2.73312
      vertex 18.45 -8 2.73312
    endloop
  endfacet
  facet normal 0 1 0
    outer loop
      vertex -36.875 -8 2.73312
      vertex 18.45 -8 -2.73312
      vertex -36.875 -8 -2.73312
    endloop
  endfacet
  facet normal 0 1 0
    outer loop
      vertex 34.875 -8 1.5109
      vertex 33.5 -8 1.47397
      vertex 33.5 -8 1.5109
    endloop
  endfacet
  facet normal 0 1 0
    outer loop
      vertex 33.5 -8 1.47397
      vertex 33.5 -8 -1.47397
      vertex 23.0385 -8 1.47397
    endloop
  endfacet
  facet normal 0 1 0
    outer loop
      vertex 34.875 -8 1.5109
      vertex 33.5 -8 -1.47397
      vertex 33.5 -8 1.47397
    endloop
  endfacet
  facet normal 0 1 -0
    outer loop
      vertex 34.875 -8 -1.5109
      vertex 33.5 -8 -1.47397
      vertex 34.875 -8 1.5109
    endloop
  endfacet
  facet normal 0 1 0
    outer loop
      vertex 33.5 -8 -1.47397
      vertex 34.875 -8 -1.5109
      vertex 33.5 -8 -1.5109
    endloop
  endfacet
  facet normal 0 1 0
    outer loop
      vertex 23.0385 -8 1.47397
      vertex 33.5 -8 -1.47397
      vertex 23.0385 -8 -1.47397
    endloop
  endfacet
  facet normal 0 0 -1
    outer loop
      vertex -36.875 -18 -34
      vertex 34.875 -8 -34
      vertex 34.875 -18 -34
    endloop
  endfacet
  facet normal -0 0 -1
    outer loop
      vertex 34.875 -8 -34
      vertex -36.875 -18 -34
      vertex -36.875 -8 -34
    endloop
  endfacet
  facet normal 0 1 -0
    outer loop
      vertex 34.875 -18 34
      vertex -36.875 -18 36
      vertex 34.875 -18 36
    endloop
  endfacet
  facet normal 0 1 0
    outer loop
      vertex -36.875 -18 36
      vertex 34.875 -18 34
      vertex -36.875 -18 34
    endloop
  endfacet
  facet normal 0 1 -0
    outer loop
      vertex 34.875 -18 -36
      vertex -36.875 -18 -34
      vertex 34.875 -18 -34
    endloop
  endfacet
  facet normal 0 1 0
    outer loop
      vertex -36.875 -18 -34
      vertex 34.875 -18 -36
      vertex -36.875 -18 -36
    endloop
  endfacet
  facet normal 0 0 1
    outer loop
      vertex 34.875 -18 36
      vertex 12.0751 -19.7768 36
      vertex 34.875 -21.1314 36
    endloop
  endfacet
  facet normal 0 0 1
    outer loop
      vertex 34.875 -18 36
      vertex 6.69779 -19.9478 36
      vertex 12.0751 -19.7768 36
    endloop
  endfacet
  facet normal -0 0 1
    outer loop
      vertex -36.875 -18 36
      vertex 6.69779 -19.9478 36
      vertex 34.875 -18 36
    endloop
  endfacet
  facet normal 0 0 1
    outer loop
      vertex 6.69779 -19.9478 36
      vertex -36.875 -18 36
      vertex 0.0392645 -20.2406 36
    endloop
  endfacet
  facet normal 0 0 1
    outer loop
      vertex 0.0392645 -20.2406 36
      vertex -36.875 -18 36
      vertex -6.61503 -20.6143 36
    endloop
  endfacet
  facet normal 0 0 1
    outer loop
      vertex -36.875 -18 36
      vertex -13.2641 -21.0688 36
      vertex -6.61503 -20.6143 36
    endloop
  endfacet
  facet normal 0 0 1
    outer loop
      vertex -36.875 -18 36
      vertex -19.9069 -21.6041 36
      vertex -13.2641 -21.0688 36
    endloop
  endfacet
  facet normal 0 0 1
    outer loop
      vertex -36.875 -18 36
      vertex -26.5425 -22.2201 36
      vertex -19.9069 -21.6041 36
    endloop
  endfacet
  facet normal 0 0 1
    outer loop
      vertex -36.875 -18 36
      vertex -33.1699 -22.9166 36
      vertex -26.5425 -22.2201 36
    endloop
  endfacet
  facet normal 0 0 1
    outer loop
      vertex -33.1699 -22.9166 36
      vertex -36.875 -18 36
      vertex -36.875 -23.3516 36
    endloop
  endfacet
  facet normal 0 0 -1
    outer loop
      vertex 12.0751 -19.7768 -36
      vertex 34.875 -18 -36
      vertex 34.875 -21.1314 -36
    endloop
  endfacet
  facet normal 0 0 -1
    outer loop
      vertex 6.69779 -19.9478 -36
      vertex 34.875 -18 -36
      vertex 12.0751 -19.7768 -36
    endloop
  endfacet
  facet normal 0 0 -1
    outer loop
      vertex -36.875 -18 -36
      vertex 6.69779 -19.9478 -36
      vertex 0.0392645 -20.2406 -36
    endloop
  endfacet
  facet normal 0 0 -1
    outer loop
      vertex -36.875 -18 -36
      vertex 0.0392645 -20.2406 -36
      vertex -6.61503 -20.6143 -36
    endloop
  endfacet
  facet normal 0 0 -1
    outer loop
      vertex 6.69779 -19.9478 -36
      vertex -36.875 -18 -36
      vertex 34.875 -18 -36
    endloop
  endfacet
  facet normal 0 0 -1
    outer loop
      vertex -13.2641 -21.0688 -36
      vertex -36.875 -18 -36
      vertex -6.61503 -20.6143 -36
    endloop
  endfacet
  facet normal 0 0 -1
    outer loop
      vertex -19.9069 -21.6041 -36
      vertex -36.875 -18 -36
      vertex -13.2641 -21.0688 -36
    endloop
  endfacet
  facet normal 0 0 -1
    outer loop
      vertex -26.5425 -22.2201 -36
      vertex -36.875 -18 -36
      vertex -19.9069 -21.6041 -36
    endloop
  endfacet
  facet normal 0 0 -1
    outer loop
      vertex -33.1699 -22.9166 -36
      vertex -36.875 -18 -36
      vertex -26.5425 -22.2201 -36
    endloop
  endfacet
  facet normal 0 0 -1
    outer loop
      vertex -36.875 -18 -36
      vertex -33.1699 -22.9166 -36
      vertex -36.875 -23.3516 -36
    endloop
  endfacet
  facet normal -0.0593064 -0.99824 2.04869e-08
    outer loop
      vertex 12.0751 -19.7768 36
      vertex 18.45 -20.1556 4
      vertex 34.875 -21.1314 36
    endloop
  endfacet
  facet normal -0.0593065 -0.99824 0
    outer loop
      vertex 12.0751 -19.7768 36
      vertex 18.45 -20.1556 -4
      vertex 18.45 -20.1556 4
    endloop
  endfacet
  facet normal -0.0593065 -0.99824 0
    outer loop
      vertex 12.0751 -19.7768 -36
      vertex 18.45 -20.1556 -4
      vertex 12.0751 -19.7768 36
    endloop
  endfacet
  facet normal -0.0593064 -0.99824 -2.04869e-08
    outer loop
      vertex 34.875 -21.1314 -36
      vertex 18.45 -20.1556 -4
      vertex 12.0751 -19.7768 -36
    endloop
  endfacet
  facet normal -0.0593063 -0.99824 0
    outer loop
      vertex 18.45 -20.1556 -4
      vertex 34.875 -21.1314 -36
      vertex 34.875 -21.1314 -4
    endloop
  endfacet
  facet normal -0.0593063 -0.99824 -0
    outer loop
      vertex 34.875 -21.1314 36
      vertex 18.45 -20.1556 4
      vertex 34.875 -21.1314 4
    endloop
  endfacet
  facet normal 0.0803194 -0.996769 0
    outer loop
      vertex -19.9069 -21.6041 -36
      vertex -13.2641 -21.0688 36
      vertex -19.9069 -21.6041 36
    endloop
  endfacet
  facet normal 0.0803194 -0.996769 0
    outer loop
      vertex -13.2641 -21.0688 36
      vertex -19.9069 -21.6041 -36
      vertex -13.2641 -21.0688 -36
    endloop
  endfacet
  facet normal 0.04393 -0.999035 0
    outer loop
      vertex 0.0392645 -20.2406 -36
      vertex 6.69779 -19.9478 36
      vertex 0.0392645 -20.2406 36
    endloop
  endfacet
  facet normal 0.04393 -0.999035 0
    outer loop
      vertex 6.69779 -19.9478 36
      vertex 0.0392645 -20.2406 -36
      vertex 6.69779 -19.9478 -36
    endloop
  endfacet
  facet normal 0.0560679 -0.998427 0
    outer loop
      vertex -6.61503 -20.6143 -36
      vertex 0.0392645 -20.2406 36
      vertex -6.61503 -20.6143 36
    endloop
  endfacet
  facet normal 0.0560679 -0.998427 0
    outer loop
      vertex 0.0392645 -20.2406 36
      vertex -6.61503 -20.6143 -36
      vertex 0.0392645 -20.2406 -36
    endloop
  endfacet
  facet normal 0.0317861 -0.999495 0
    outer loop
      vertex 6.69779 -19.9478 -36
      vertex 12.0751 -19.7768 36
      vertex 6.69779 -19.9478 36
    endloop
  endfacet
  facet normal 0.0317861 -0.999495 0
    outer loop
      vertex 12.0751 -19.7768 36
      vertex 6.69779 -19.9478 -36
      vertex 12.0751 -19.7768 -36
    endloop
  endfacet
  facet normal 0.104526 -0.994522 0
    outer loop
      vertex -33.1699 -22.9166 -36
      vertex -26.5425 -22.2201 36
      vertex -33.1699 -22.9166 36
    endloop
  endfacet
  facet normal 0.104526 -0.994522 0
    outer loop
      vertex -26.5425 -22.2201 36
      vertex -33.1699 -22.9166 -36
      vertex -26.5425 -22.2201 -36
    endloop
  endfacet
  facet normal 0.0924292 -0.995719 0
    outer loop
      vertex -26.5425 -22.2201 -36
      vertex -19.9069 -21.6041 36
      vertex -26.5425 -22.2201 36
    endloop
  endfacet
  facet normal 0.0924292 -0.995719 0
    outer loop
      vertex -19.9069 -21.6041 36
      vertex -26.5425 -22.2201 -36
      vertex -19.9069 -21.6041 -36
    endloop
  endfacet
  facet normal 0.11661 -0.993178 0
    outer loop
      vertex -36.875 -23.3516 -36
      vertex -33.1699 -22.9166 36
      vertex -36.875 -23.3516 36
    endloop
  endfacet
  facet normal 0.11661 -0.993178 0
    outer loop
      vertex -33.1699 -22.9166 36
      vertex -36.875 -23.3516 -36
      vertex -33.1699 -22.9166 -36
    endloop
  endfacet
  facet normal 0.0681983 -0.997672 0
    outer loop
      vertex -13.2641 -21.0688 -36
      vertex -6.61503 -20.6143 36
      vertex -13.2641 -21.0688 36
    endloop
  endfacet
  facet normal 0.0681983 -0.997672 0
    outer loop
      vertex -6.61503 -20.6143 36
      vertex -13.2641 -21.0688 -36
      vertex -6.61503 -20.6143 -36
    endloop
  endfacet
  facet normal 0 0.998795 -0.0490673
    outer loop
      vertex 34.875 -17.5 17.0625
      vertex 32.9 -17.4157 18.7778
      vertex 34.875 -17.4157 18.7778
    endloop
  endfacet
  facet normal 0 0.998795 -0.0490673
    outer loop
      vertex 32.9 -17.4157 18.7778
      vertex 34.875 -17.5 17.0625
      vertex 32.9 -17.5 17.0625
    endloop
  endfacet
  facet normal -0 0.427555 0.903989
    outer loop
      vertex 33.5 -8 1.5109
      vertex 34.875 -8.24944 1.62888
      vertex 34.875 -8 1.5109
    endloop
  endfacet
  facet normal 0 0.427555 0.903989
    outer loop
      vertex 34.875 -8.24944 1.62888
      vertex 33.5 -8 1.5109
      vertex 33.5 -8.24944 1.62888
    endloop
  endfacet
  facet normal 1 0 0
    outer loop
      vertex 32.9 -9.72248 2.51178
      vertex 32.9 -9.08126 3.35738
      vertex 32.9 -9.69846 3.71372
    endloop
  endfacet
  facet normal 1 0 0
    outer loop
      vertex 32.9 -9.62514 2.46986
      vertex 32.9 -9.72248 2.51178
      vertex 32.9 -8.40195 1.72029
    endloop
  endfacet
  facet normal 1 0 0
    outer loop
      vertex 32.9 -9.08126 3.35738
      vertex 32.9 -9.72248 2.51178
      vertex 32.9 -9.62514 2.46986
    endloop
  endfacet
  facet normal 1 0 0
    outer loop
      vertex 32.9 -9.69846 3.71372
      vertex 32.9 -11.1019 3.53482
      vertex 32.9 -9.72248 2.51178
    endloop
  endfacet
  facet normal 1 0 0
    outer loop
      vertex 32.9 -12.2619 6.02184
      vertex 32.9 -11.1019 3.53482
      vertex 32.9 -9.69846 3.71372
    endloop
  endfacet
  facet normal 1 0 0
    outer loop
      vertex 32.9 -12.2619 6.02184
      vertex 32.9 -12.3744 4.68813
      vertex 32.9 -11.1019 3.53482
    endloop
  endfacet
  facet normal 1 0 0
    outer loop
      vertex 32.9 -12.2619 6.02184
      vertex 32.9 -13.5277 5.96062
      vertex 32.9 -12.3744 4.68813
    endloop
  endfacet
  facet normal 1 0 0
    outer loop
      vertex 32.9 -14.0939 8.5434
      vertex 32.9 -13.5277 5.96062
      vertex 32.9 -12.2619 6.02184
    endloop
  endfacet
  facet normal 1 0 0
    outer loop
      vertex 32.9 -15.4336 8.81306
      vertex 32.9 -14.0939 8.5434
      vertex 32.9 -14.2894 8.8125
    endloop
  endfacet
  facet normal 1 -0 0
    outer loop
      vertex 32.9 -15.4336 8.81306
      vertex 32.9 -14.2894 8.8125
      vertex 32.9 -14.4247 9.11637
    endloop
  endfacet
  facet normal 1 0 0
    outer loop
      vertex 32.9 -14.0939 8.5434
      vertex 32.9 -14.5507 7.34002
      vertex 32.9 -13.5277 5.96062
    endloop
  endfacet
  facet normal 1 0 0
    outer loop
      vertex 32.9 -14.0939 8.5434
      vertex 32.9 -15.4336 8.81306
      vertex 32.9 -14.5507 7.34002
    endloop
  endfacet
  facet normal 1 -0 0
    outer loop
      vertex 32.9 -16.1679 10.3655
      vertex 32.9 -14.4247 9.11637
      vertex 32.9 -15.6924 11.9637
    endloop
  endfacet
  facet normal 1 0 0
    outer loop
      vertex 32.9 -14.4247 9.11637
      vertex 32.9 -16.1679 10.3655
      vertex 32.9 -15.4336 8.81306
    endloop
  endfacet
  facet normal 1 -0 0
    outer loop
      vertex 32.9 -17.1637 13.6484
      vertex 32.9 -15.6924 11.9637
      vertex 32.9 -16.4096 15.3378
    endloop
  endfacet
  facet normal 1 0 0
    outer loop
      vertex 32.9 -15.6924 11.9637
      vertex 32.9 -16.7465 11.9825
      vertex 32.9 -16.1679 10.3655
    endloop
  endfacet
  facet normal 1 -0 0
    outer loop
      vertex 32.9 -17.5 17.0625
      vertex 32.9 -16.4096 15.3378
      vertex 32.9 -16.4096 18.7872
    endloop
  endfacet
  facet normal 1 0 0
    outer loop
      vertex 32.9 -15.6924 11.9637
      vertex 32.9 -17.1637 13.6484
      vertex 32.9 -16.7465 11.9825
    endloop
  endfacet
  facet normal 1 -0 0
    outer loop
      vertex 32.9 -17.2344 20
      vertex 32.9 -16.4096 18.7872
      vertex 32.9 -16.1518 20
    endloop
  endfacet
  facet normal 1 0 0
    outer loop
      vertex 32.9 -17.4157 18.7778
      vertex 32.9 -16.4096 18.7872
      vertex 32.9 -17.2344 20
    endloop
  endfacet
  facet normal 1 0 0
    outer loop
      vertex 32.9 -16.4096 18.7872
      vertex 32.9 -17.4157 18.7778
      vertex 32.9 -17.5 17.0625
    endloop
  endfacet
  facet normal 1 0 0
    outer loop
      vertex 32.9 -16.4096 15.3378
      vertex 32.9 -17.4157 15.3472
      vertex 32.9 -17.1637 13.6484
    endloop
  endfacet
  facet normal 1 0 0
    outer loop
      vertex 32.9 -16.4096 15.3378
      vertex 32.9 -17.5 17.0625
      vertex 32.9 -17.4157 15.3472
    endloop
  endfacet
  facet normal 0 0.998795 0.0490673
    outer loop
      vertex 34.875 -17.4157 15.3472
      vertex 32.9 -17.5 17.0625
      vertex 34.875 -17.5 17.0625
    endloop
  endfacet
  facet normal 0 0.998795 0.0490673
    outer loop
      vertex 32.9 -17.5 17.0625
      vertex 34.875 -17.4157 15.3472
      vertex 32.9 -17.4157 15.3472
    endloop
  endfacet
  facet normal 0 0.970031 0.24298
    outer loop
      vertex 34.875 -16.7465 11.9825
      vertex 32.9 -17.1637 13.6484
      vertex 34.875 -17.1637 13.6484
    endloop
  endfacet
  facet normal 0 0.970031 0.24298
    outer loop
      vertex 32.9 -17.1637 13.6484
      vertex 34.875 -16.7465 11.9825
      vertex 32.9 -16.7465 11.9825
    endloop
  endfacet
  facet normal 0 0.803208 0.595699
    outer loop
      vertex 34.875 -13.5277 5.96062
      vertex 32.9 -14.5507 7.34002
      vertex 34.875 -14.5507 7.34002
    endloop
  endfacet
  facet normal 0 0.803208 0.595699
    outer loop
      vertex 32.9 -14.5507 7.34002
      vertex 34.875 -13.5277 5.96062
      vertex 32.9 -13.5277 5.96062
    endloop
  endfacet
  facet normal 0 0.903989 0.427556
    outer loop
      vertex 34.875 -15.4336 8.81306
      vertex 32.9 -16.1679 10.3655
      vertex 34.875 -16.1679 10.3655
    endloop
  endfacet
  facet normal 0 0.903989 0.427556
    outer loop
      vertex 32.9 -16.1679 10.3655
      vertex 34.875 -15.4336 8.81306
      vertex 32.9 -15.4336 8.81306
    endloop
  endfacet
  facet normal -0 0.671559 0.740951
    outer loop
      vertex 32.9 -11.1019 3.53482
      vertex 34.875 -12.3744 4.68813
      vertex 34.875 -11.1019 3.53482
    endloop
  endfacet
  facet normal 0 0.671559 0.740951
    outer loop
      vertex 34.875 -12.3744 4.68813
      vertex 32.9 -11.1019 3.53482
      vertex 32.9 -12.3744 4.68813
    endloop
  endfacet
  facet normal 0 0.514102 0.857729
    outer loop
      vertex 33.5 -8.40195 1.72029
      vertex 34.875 -8.24944 1.62888
      vertex 33.5 -8.24944 1.62888
    endloop
  endfacet
  facet normal -1.27812e-07 0.514103 0.857729
    outer loop
      vertex 34.875 -8.24944 1.62888
      vertex 33.5 -8.40195 1.72029
      vertex 34.875 -9.72248 2.51178
    endloop
  endfacet
  facet normal 0 0.514103 0.857729
    outer loop
      vertex 32.9 -9.72248 2.51178
      vertex 33.5 -8.40195 1.72029
      vertex 32.9 -8.40195 1.72029
    endloop
  endfacet
  facet normal 0 0.514103 0.857729
    outer loop
      vertex 33.5 -8.40195 1.72029
      vertex 32.9 -9.72248 2.51178
      vertex 34.875 -9.72248 2.51178
    endloop
  endfacet
  facet normal 0 0.989176 -0.146731
    outer loop
      vertex 34.875 -17.4157 18.7778
      vertex 32.9 -17.2344 20
      vertex 34.875 -17.2344 20
    endloop
  endfacet
  facet normal 0 0.989176 -0.146731
    outer loop
      vertex 32.9 -17.2344 20
      vertex 34.875 -17.4157 18.7778
      vertex 32.9 -17.4157 18.7778
    endloop
  endfacet
  facet normal 0 0.989176 0.146731
    outer loop
      vertex 34.875 -17.1637 13.6484
      vertex 32.9 -17.4157 15.3472
      vertex 34.875 -17.4157 15.3472
    endloop
  endfacet
  facet normal 0 0.989176 0.146731
    outer loop
      vertex 32.9 -17.4157 15.3472
      vertex 34.875 -17.1637 13.6484
      vertex 32.9 -17.1637 13.6484
    endloop
  endfacet
  facet normal 0 0.941544 0.33689
    outer loop
      vertex 34.875 -16.1679 10.3655
      vertex 32.9 -16.7465 11.9825
      vertex 34.875 -16.7465 11.9825
    endloop
  endfacet
  facet normal 0 0.941544 0.33689
    outer loop
      vertex 32.9 -16.7465 11.9825
      vertex 34.875 -16.1679 10.3655
      vertex 32.9 -16.1679 10.3655
    endloop
  endfacet
  facet normal 0 0.740951 0.671559
    outer loop
      vertex 34.875 -12.3744 4.68813
      vertex 32.9 -13.5277 5.96062
      vertex 34.875 -13.5277 5.96062
    endloop
  endfacet
  facet normal 0 0.740951 0.671559
    outer loop
      vertex 32.9 -13.5277 5.96062
      vertex 34.875 -12.3744 4.68813
      vertex 32.9 -12.3744 4.68813
    endloop
  endfacet
  facet normal 0 0.857729 0.514103
    outer loop
      vertex 34.875 -14.5507 7.34002
      vertex 32.9 -15.4336 8.81306
      vertex 34.875 -15.4336 8.81306
    endloop
  endfacet
  facet normal 0 0.857729 0.514103
    outer loop
      vertex 32.9 -15.4336 8.81306
      vertex 34.875 -14.5507 7.34002
      vertex 32.9 -14.5507 7.34002
    endloop
  endfacet
  facet normal -0 0.595699 0.803208
    outer loop
      vertex 32.9 -9.72248 2.51178
      vertex 34.875 -11.1019 3.53482
      vertex 34.875 -9.72248 2.51178
    endloop
  endfacet
  facet normal 0 0.595699 0.803208
    outer loop
      vertex 34.875 -11.1019 3.53482
      vertex 32.9 -9.72248 2.51178
      vertex 32.9 -11.1019 3.53482
    endloop
  endfacet
  facet normal 0 0 -1
    outer loop
      vertex 32.9 -17.2344 20
      vertex 34.875 -16.1518 20
      vertex 34.875 -17.2344 20
    endloop
  endfacet
  facet normal -0 0 -1
    outer loop
      vertex 34.875 -16.1518 20
      vertex 32.9 -17.2344 20
      vertex 32.9 -16.1518 20
    endloop
  endfacet
  facet normal 0 0.903989 -0.427556
    outer loop
      vertex 34.875 -16.1679 -10.3655
      vertex 32.9 -15.4336 -8.81306
      vertex 34.875 -15.4336 -8.81306
    endloop
  endfacet
  facet normal 0 0.903989 -0.427556
    outer loop
      vertex 32.9 -15.4336 -8.81306
      vertex 34.875 -16.1679 -10.3655
      vertex 32.9 -16.1679 -10.3655
    endloop
  endfacet
  facet normal 0 0.740951 -0.671559
    outer loop
      vertex 34.875 -13.5277 -5.96062
      vertex 32.9 -12.3744 -4.68813
      vertex 34.875 -12.3744 -4.68813
    endloop
  endfacet
  facet normal 0 0.740951 -0.671559
    outer loop
      vertex 32.9 -12.3744 -4.68813
      vertex 34.875 -13.5277 -5.96062
      vertex 32.9 -13.5277 -5.96062
    endloop
  endfacet
  facet normal 0 0.998795 0.0490673
    outer loop
      vertex 34.875 -17.4157 -18.7778
      vertex 32.9 -17.5 -17.0625
      vertex 34.875 -17.5 -17.0625
    endloop
  endfacet
  facet normal 0 0.998795 0.0490673
    outer loop
      vertex 32.9 -17.5 -17.0625
      vertex 34.875 -17.4157 -18.7778
      vertex 32.9 -17.4157 -18.7778
    endloop
  endfacet
  facet normal 1 0 0
    outer loop
      vertex 32.9 -9.72248 -2.51178
      vertex 32.9 -9.62514 -2.46986
      vertex 32.9 -8.40195 -1.72029
    endloop
  endfacet
  facet normal 1 0 0
    outer loop
      vertex 32.9 -9.08126 -3.35738
      vertex 32.9 -9.72248 -2.51178
      vertex 32.9 -9.69846 -3.71372
    endloop
  endfacet
  facet normal 1 -0 0
    outer loop
      vertex 32.9 -11.1019 -3.53482
      vertex 32.9 -9.69846 -3.71372
      vertex 32.9 -9.72248 -2.51178
    endloop
  endfacet
  facet normal 1 0 0
    outer loop
      vertex 32.9 -11.1019 -3.53482
      vertex 32.9 -12.2619 -6.02184
      vertex 32.9 -9.69846 -3.71372
    endloop
  endfacet
  facet normal 1 -0 0
    outer loop
      vertex 32.9 -12.3744 -4.68813
      vertex 32.9 -12.2619 -6.02184
      vertex 32.9 -11.1019 -3.53482
    endloop
  endfacet
  facet normal 1 -0 0
    outer loop
      vertex 32.9 -13.5277 -5.96062
      vertex 32.9 -12.2619 -6.02184
      vertex 32.9 -12.3744 -4.68813
    endloop
  endfacet
  facet normal 1 0 0
    outer loop
      vertex 32.9 -12.2619 -6.02184
      vertex 32.9 -13.5277 -5.96062
      vertex 32.9 -12.4574 -6.29094
    endloop
  endfacet
  facet normal 1 0 0
    outer loop
      vertex 32.9 -14.5507 -7.34002
      vertex 32.9 -12.4574 -6.29094
      vertex 32.9 -13.5277 -5.96062
    endloop
  endfacet
  facet normal 1 0 0
    outer loop
      vertex 32.9 -12.4574 -6.29094
      vertex 32.9 -14.5507 -7.34002
      vertex 32.9 -14.2894 -8.8125
    endloop
  endfacet
  facet normal 1 0 0
    outer loop
      vertex 32.9 -15.4336 -8.81306
      vertex 32.9 -14.2894 -8.8125
      vertex 32.9 -14.5507 -7.34002
    endloop
  endfacet
  facet normal 1 0 0
    outer loop
      vertex 32.9 -16.1679 -10.3655
      vertex 32.9 -14.2894 -8.8125
      vertex 32.9 -15.4336 -8.81306
    endloop
  endfacet
  facet normal 1 0 0
    outer loop
      vertex 32.9 -14.2894 -8.8125
      vertex 32.9 -16.1679 -10.3655
      vertex 32.9 -15.5571 -11.6599
    endloop
  endfacet
  facet normal 1 0 0
    outer loop
      vertex 32.9 -16.7465 -11.9825
      vertex 32.9 -15.5571 -11.6599
      vertex 32.9 -16.1679 -10.3655
    endloop
  endfacet
  facet normal 1 0 0
    outer loop
      vertex 32.9 -15.5571 -11.6599
      vertex 32.9 -16.7465 -11.9825
      vertex 32.9 -15.6924 -11.9637
    endloop
  endfacet
  facet normal 1 0 0
    outer loop
      vertex 32.9 -15.6924 -11.9637
      vertex 32.9 -17.1637 -13.6484
      vertex 32.9 -16.4096 -15.3378
    endloop
  endfacet
  facet normal 1 0 0
    outer loop
      vertex 32.9 -17.1637 -13.6484
      vertex 32.9 -15.6924 -11.9637
      vertex 32.9 -16.7465 -11.9825
    endloop
  endfacet
  facet normal 1 -0 0
    outer loop
      vertex 32.9 -9.72248 -2.51178
      vertex 32.9 -9.08126 -3.35738
      vertex 32.9 -9.62514 -2.46986
    endloop
  endfacet
  facet normal 1 0 0
    outer loop
      vertex 32.9 -17.4157 -15.3472
      vertex 32.9 -16.4096 -15.3378
      vertex 32.9 -17.1637 -13.6484
    endloop
  endfacet
  facet normal 1 0 0
    outer loop
      vertex 32.9 -16.4096 -18.7872
      vertex 32.9 -17.2344 -20
      vertex 32.9 -16.1518 -20
    endloop
  endfacet
  facet normal 1 0 0
    outer loop
      vertex 32.9 -17.5 -17.0625
      vertex 32.9 -16.4096 -15.3378
      vertex 32.9 -17.4157 -15.3472
    endloop
  endfacet
  facet normal 1 0 0
    outer loop
      vertex 32.9 -16.4096 -15.3378
      vertex 32.9 -17.5 -17.0625
      vertex 32.9 -16.4096 -18.7872
    endloop
  endfacet
  facet normal 1 -0 -0
    outer loop
      vertex 32.9 -17.4157 -18.7778
      vertex 32.9 -16.4096 -18.7872
      vertex 32.9 -17.5 -17.0625
    endloop
  endfacet
  facet normal 1 0 0
    outer loop
      vertex 32.9 -16.4096 -18.7872
      vertex 32.9 -17.4157 -18.7778
      vertex 32.9 -17.2344 -20
    endloop
  endfacet
  facet normal 0 0.989176 0.146731
    outer loop
      vertex 34.875 -17.2344 -20
      vertex 32.9 -17.4157 -18.7778
      vertex 34.875 -17.4157 -18.7778
    endloop
  endfacet
  facet normal 0 0.989176 0.146731
    outer loop
      vertex 32.9 -17.4157 -18.7778
      vertex 34.875 -17.2344 -20
      vertex 32.9 -17.2344 -20
    endloop
  endfacet
  facet normal 0 0.998795 -0.0490673
    outer loop
      vertex 34.875 -17.5 -17.0625
      vertex 32.9 -17.4157 -15.3472
      vertex 34.875 -17.4157 -15.3472
    endloop
  endfacet
  facet normal 0 0.998795 -0.0490673
    outer loop
      vertex 32.9 -17.4157 -15.3472
      vertex 34.875 -17.5 -17.0625
      vertex 32.9 -17.5 -17.0625
    endloop
  endfacet
  facet normal 0 0.941544 -0.33689
    outer loop
      vertex 34.875 -16.7465 -11.9825
      vertex 32.9 -16.1679 -10.3655
      vertex 34.875 -16.1679 -10.3655
    endloop
  endfacet
  facet normal 0 0.941544 -0.33689
    outer loop
      vertex 32.9 -16.1679 -10.3655
      vertex 34.875 -16.7465 -11.9825
      vertex 32.9 -16.7465 -11.9825
    endloop
  endfacet
  facet normal 0 0.970031 -0.24298
    outer loop
      vertex 34.875 -17.1637 -13.6484
      vertex 32.9 -16.7465 -11.9825
      vertex 34.875 -16.7465 -11.9825
    endloop
  endfacet
  facet normal 0 0.970031 -0.24298
    outer loop
      vertex 32.9 -16.7465 -11.9825
      vertex 34.875 -17.1637 -13.6484
      vertex 32.9 -17.1637 -13.6484
    endloop
  endfacet
  facet normal 0 0.857729 -0.514103
    outer loop
      vertex 34.875 -15.4336 -8.81306
      vertex 32.9 -14.5507 -7.34002
      vertex 34.875 -14.5507 -7.34002
    endloop
  endfacet
  facet normal 0 0.857729 -0.514103
    outer loop
      vertex 32.9 -14.5507 -7.34002
      vertex 34.875 -15.4336 -8.81306
      vertex 32.9 -15.4336 -8.81306
    endloop
  endfacet
  facet normal 0 0.803208 -0.595699
    outer loop
      vertex 34.875 -14.5507 -7.34002
      vertex 32.9 -13.5277 -5.96062
      vertex 34.875 -13.5277 -5.96062
    endloop
  endfacet
  facet normal 0 0.803208 -0.595699
    outer loop
      vertex 32.9 -13.5277 -5.96062
      vertex 34.875 -14.5507 -7.34002
      vertex 32.9 -14.5507 -7.34002
    endloop
  endfacet
  facet normal -1.27812e-07 0.514103 -0.857729
    outer loop
      vertex 34.875 -9.72248 -2.51178
      vertex 33.5 -8.40195 -1.72029
      vertex 34.875 -8.24944 -1.62888
    endloop
  endfacet
  facet normal 0 0.514103 -0.857729
    outer loop
      vertex 32.9 -9.72248 -2.51178
      vertex 33.5 -8.40195 -1.72029
      vertex 34.875 -9.72248 -2.51178
    endloop
  endfacet
  facet normal 0 0.514103 -0.857729
    outer loop
      vertex 33.5 -8.40195 -1.72029
      vertex 32.9 -9.72248 -2.51178
      vertex 32.9 -8.40195 -1.72029
    endloop
  endfacet
  facet normal 0 0.514102 -0.857729
    outer loop
      vertex 34.875 -8.24944 -1.62888
      vertex 33.5 -8.40195 -1.72029
      vertex 33.5 -8.24944 -1.62888
    endloop
  endfacet
  facet normal 0 0.595699 -0.803208
    outer loop
      vertex 32.9 -11.1019 -3.53482
      vertex 34.875 -9.72248 -2.51178
      vertex 34.875 -11.1019 -3.53482
    endloop
  endfacet
  facet normal 0 0.595699 -0.803208
    outer loop
      vertex 34.875 -9.72248 -2.51178
      vertex 32.9 -11.1019 -3.53482
      vertex 32.9 -9.72248 -2.51178
    endloop
  endfacet
  facet normal 0 0.427555 -0.903989
    outer loop
      vertex 33.5 -8.24944 -1.62888
      vertex 34.875 -8 -1.5109
      vertex 34.875 -8.24944 -1.62888
    endloop
  endfacet
  facet normal 0 0.427555 -0.903989
    outer loop
      vertex 34.875 -8 -1.5109
      vertex 33.5 -8.24944 -1.62888
      vertex 33.5 -8 -1.5109
    endloop
  endfacet
  facet normal 0 0.671559 -0.740951
    outer loop
      vertex 32.9 -12.3744 -4.68813
      vertex 34.875 -11.1019 -3.53482
      vertex 34.875 -12.3744 -4.68813
    endloop
  endfacet
  facet normal 0 0.671559 -0.740951
    outer loop
      vertex 34.875 -11.1019 -3.53482
      vertex 32.9 -12.3744 -4.68813
      vertex 32.9 -11.1019 -3.53482
    endloop
  endfacet
  facet normal 0 0.989176 -0.146731
    outer loop
      vertex 34.875 -17.4157 -15.3472
      vertex 32.9 -17.1637 -13.6484
      vertex 34.875 -17.1637 -13.6484
    endloop
  endfacet
  facet normal 0 0.989176 -0.146731
    outer loop
      vertex 32.9 -17.1637 -13.6484
      vertex 34.875 -17.4157 -15.3472
      vertex 32.9 -17.4157 -15.3472
    endloop
  endfacet
  facet normal -0 0 1
    outer loop
      vertex 32.9 -16.1518 -20
      vertex 34.875 -17.2344 -20
      vertex 34.875 -16.1518 -20
    endloop
  endfacet
  facet normal 0 0 1
    outer loop
      vertex 34.875 -17.2344 -20
      vertex 32.9 -16.1518 -20
      vertex 32.9 -17.2344 -20
    endloop
  endfacet
  facet normal 0.99824 -0.0593052 0
    outer loop
      vertex 21.05 -18.3707 4
      vertex 21.09 -17.6972 -4
      vertex 21.09 -17.6972 4
    endloop
  endfacet
  facet normal 0.99824 -0.0593052 0
    outer loop
      vertex 21.09 -17.6972 -4
      vertex 21.05 -18.3707 4
      vertex 21.05 -18.3707 -4
    endloop
  endfacet
  facet normal 0 0 -1
    outer loop
      vertex 21.05 -18.3707 4
      vertex 34.875 -18.5161 4
      vertex 34.875 -21.1314 4
    endloop
  endfacet
  facet normal 0 0 -1
    outer loop
      vertex 34.875 -18.5161 4
      vertex 21.05 -18.3707 4
      vertex 21.09 -17.6972 4
    endloop
  endfacet
  facet normal 0 0 -1
    outer loop
      vertex 18.45 -20.1556 4
      vertex 21.05 -18.3707 4
      vertex 34.875 -21.1314 4
    endloop
  endfacet
  facet normal 0 0 -1
    outer loop
      vertex 18.45 -10.0164 4
      vertex 21.05 -18.3707 4
      vertex 18.45 -20.1556 4
    endloop
  endfacet
  facet normal 0 0 -1
    outer loop
      vertex 21.05 -18.3707 4
      vertex 18.45 -10.0164 4
      vertex 21.05 -10.0164 4
    endloop
  endfacet
  facet normal -0.0593064 -0.99824 0
    outer loop
      vertex 21.09 -17.6972 -4
      vertex 34.875 -18.5161 4
      vertex 21.09 -17.6972 4
    endloop
  endfacet
  facet normal -0.0593064 -0.99824 -0
    outer loop
      vertex 34.875 -18.5161 4
      vertex 21.09 -17.6972 -4
      vertex 34.875 -18.5161 -4
    endloop
  endfacet
  facet normal 0 0 1
    outer loop
      vertex 21.05 -10.0164 -4
      vertex 18.45 -10.0164 -4
      vertex 21.05 -18.3707 -4
    endloop
  endfacet
  facet normal -0 0 1
    outer loop
      vertex 21.05 -18.3707 -4
      vertex 34.875 -18.5161 -4
      vertex 21.09 -17.6972 -4
    endloop
  endfacet
  facet normal 0 0 1
    outer loop
      vertex 34.875 -18.5161 -4
      vertex 21.05 -18.3707 -4
      vertex 34.875 -21.1314 -4
    endloop
  endfacet
  facet normal 0 0 1
    outer loop
      vertex 21.05 -18.3707 -4
      vertex 18.45 -20.1556 -4
      vertex 34.875 -21.1314 -4
    endloop
  endfacet
  facet normal 0 0 1
    outer loop
      vertex 18.45 -20.1556 -4
      vertex 21.05 -18.3707 -4
      vertex 18.45 -10.0164 -4
    endloop
  endfacet
  facet normal 1 0 0
    outer loop
      vertex 18.45 -9.69846 3.71372
      vertex 18.45 -8 -2.73312
      vertex 18.45 -8 2.73312
    endloop
  endfacet
  facet normal 1 0 0
    outer loop
      vertex 18.45 -9.69846 3.71372
      vertex 18.45 -9.69846 -3.71372
      vertex 18.45 -8 -2.73312
    endloop
  endfacet
  facet normal 1 0 0
    outer loop
      vertex 18.45 -10.0164 4
      vertex 18.45 -9.69846 -3.71372
      vertex 18.45 -9.69846 3.71372
    endloop
  endfacet
  facet normal 1 0 0
    outer loop
      vertex 18.45 -10.0164 4
      vertex 18.45 -10.0164 -4
      vertex 18.45 -9.69846 -3.71372
    endloop
  endfacet
  facet normal 1 -0 0
    outer loop
      vertex 18.45 -20.1556 4
      vertex 18.45 -10.0164 -4
      vertex 18.45 -10.0164 4
    endloop
  endfacet
  facet normal 1 0 0
    outer loop
      vertex 18.45 -10.0164 -4
      vertex 18.45 -20.1556 4
      vertex 18.45 -20.1556 -4
    endloop
  endfacet
  facet normal -1 0 0
    outer loop
      vertex 21.05 -18.3707 -4
      vertex 21.05 -9.98848 -3.9
      vertex 21.05 -10.0164 -4
    endloop
  endfacet
  facet normal -1 0 0
    outer loop
      vertex 21.05 -10.0164 -4
      vertex 21.05 -9.98848 -3.9
      vertex 21.05 -9.90534 -3.9
    endloop
  endfacet
  facet normal -1 0 0
    outer loop
      vertex 21.05 -9.98848 3.9
      vertex 21.05 -10.0164 4
      vertex 21.05 -9.90534 3.9
    endloop
  endfacet
  facet normal -1 -0 0
    outer loop
      vertex 21.05 -9.98848 -3.9
      vertex 21.05 -18.3707 -4
      vertex 21.05 -9.98848 3.9
    endloop
  endfacet
  facet normal -1 0 0
    outer loop
      vertex 21.05 -18.3707 4
      vertex 21.05 -9.98848 3.9
      vertex 21.05 -18.3707 -4
    endloop
  endfacet
  facet normal -1 0 0
    outer loop
      vertex 21.05 -9.98848 3.9
      vertex 21.05 -18.3707 4
      vertex 21.05 -10.0164 4
    endloop
  endfacet
  facet normal 0 0 -1
    outer loop
      vertex 21.05 -9.90534 3.9
      vertex 21.1331 -9.90534 3.9
      vertex 21.05 -9.98848 3.9
    endloop
  endfacet
  facet normal 0 0 1
    outer loop
      vertex 21.1331 -9.90534 -3.9
      vertex 21.05 -9.90534 -3.9
      vertex 21.05 -9.98848 -3.9
    endloop
  endfacet
  facet normal -0.707107 0.707107 0
    outer loop
      vertex 21.05 -9.98848 -3.9
      vertex 21.5 -9.53848 -2.41675
      vertex 21.5 -9.53848 -2.61128
    endloop
  endfacet
  facet normal -0.707107 0.707107 0
    outer loop
      vertex 21.5 -9.53848 -2.41675
      vertex 21.05 -9.98848 -3.9
      vertex 21.5 -9.53848 2.41675
    endloop
  endfacet
  facet normal -0.707107 0.707107 0
    outer loop
      vertex 21.05 -9.98848 -3.9
      vertex 21.5 -9.53848 -2.61128
      vertex 21.34 -9.69846 -3.71372
    endloop
  endfacet
  facet normal -0.707107 0.707107 0
    outer loop
      vertex 21.34 -9.69846 -3.71372
      vertex 21.5 -9.53848 -2.61128
      vertex 21.9572 -9.08126 -3.35738
    endloop
  endfacet
  facet normal -0.707107 0.707107 0
    outer loop
      vertex 21.5 -9.53848 -2.41675
      vertex 23.0385 -8 1.47397
      vertex 23.0385 -8 -1.47397
    endloop
  endfacet
  facet normal -0.707107 0.707107 0
    outer loop
      vertex 23.0385 -8 1.47397
      vertex 21.5 -9.53848 -2.41675
      vertex 21.5 -9.53848 2.41675
    endloop
  endfacet
  facet normal -0.707107 0.707107 0
    outer loop
      vertex 21.5 -9.53848 2.61128
      vertex 21.34 -9.69846 3.71372
      vertex 21.9572 -9.08126 3.35738
    endloop
  endfacet
  facet normal -0.707107 0.707107 0
    outer loop
      vertex 21.05 -9.98848 3.9
      vertex 21.5 -9.53848 2.41675
      vertex 21.05 -9.98848 -3.9
    endloop
  endfacet
  facet normal -0.707103 0.707111 -1.26286e-05
    outer loop
      vertex 21.05 -9.98848 -3.9
      vertex 21.34 -9.69846 -3.71372
      vertex 21.1331 -9.90534 -3.9
    endloop
  endfacet
  facet normal -0.707107 0.707107 0
    outer loop
      vertex 21.5 -9.53848 2.41675
      vertex 21.05 -9.98848 3.9
      vertex 21.5 -9.53848 2.61128
    endloop
  endfacet
  facet normal -0.707107 0.707107 0
    outer loop
      vertex 21.5 -9.53848 2.61128
      vertex 21.05 -9.98848 3.9
      vertex 21.34 -9.69846 3.71372
    endloop
  endfacet
  facet normal -0.707103 0.707111 1.26286e-05
    outer loop
      vertex 21.34 -9.69846 3.71372
      vertex 21.05 -9.98848 3.9
      vertex 21.1331 -9.90534 3.9
    endloop
  endfacet
  facet normal 1 0 -0
    outer loop
      vertex 21.5 -9.53848 2.41675
      vertex 21.5 -9.53848 2.61128
      vertex 21.5 -9.62514 2.46986
    endloop
  endfacet
  facet normal 0 0.85264 -0.522499
    outer loop
      vertex 32.9 -9.62514 2.46986
      vertex 21.9572 -9.08126 3.35738
      vertex 32.9 -9.08126 3.35738
    endloop
  endfacet
  facet normal 0 0.85264 -0.522499
    outer loop
      vertex 21.5 -9.62514 2.46986
      vertex 21.9572 -9.08126 3.35738
      vertex 32.9 -9.62514 2.46986
    endloop
  endfacet
  facet normal -1.54123e-07 0.85264 -0.522499
    outer loop
      vertex 21.9572 -9.08126 3.35738
      vertex 21.5 -9.62514 2.46986
      vertex 21.5 -9.53848 2.61128
    endloop
  endfacet
  facet normal -1 0 0
    outer loop
      vertex 33.5 -8 1.47397
      vertex 33.5 -8.24944 1.62888
      vertex 33.5 -8 1.5109
    endloop
  endfacet
  facet normal -1 -0 -0
    outer loop
      vertex 33.5 -8.24944 1.62888
      vertex 33.5 -8 1.47397
      vertex 33.5 -8.40195 1.72029
    endloop
  endfacet
  facet normal 0 0.522498 0.85264
    outer loop
      vertex 33.5 -8 1.47397
      vertex 32.9 -8.40195 1.72029
      vertex 33.5 -8.40195 1.72029
    endloop
  endfacet
  facet normal -0 0.522498 0.85264
    outer loop
      vertex 23.0385 -8 1.47397
      vertex 32.9 -8.40195 1.72029
      vertex 33.5 -8 1.47397
    endloop
  endfacet
  facet normal 2.64819e-08 0.522499 0.85264
    outer loop
      vertex 23.0385 -8 1.47397
      vertex 32.9 -9.62514 2.46986
      vertex 32.9 -8.40195 1.72029
    endloop
  endfacet
  facet normal 7.35034e-07 0.522498 0.85264
    outer loop
      vertex 21.5 -9.62514 2.46986
      vertex 23.0385 -8 1.47397
      vertex 21.5 -9.53848 2.41675
    endloop
  endfacet
  facet normal 0 0.522499 0.85264
    outer loop
      vertex 23.0385 -8 1.47397
      vertex 21.5 -9.62514 2.46986
      vertex 32.9 -9.62514 2.46986
    endloop
  endfacet
  facet normal 1 0 -0
    outer loop
      vertex 21.5 -9.53848 -2.61128
      vertex 21.5 -9.53848 -2.41675
      vertex 21.5 -9.62514 -2.46986
    endloop
  endfacet
  facet normal -1 0 0
    outer loop
      vertex 33.5 -8.24944 -1.62888
      vertex 33.5 -8 -1.47397
      vertex 33.5 -8 -1.5109
    endloop
  endfacet
  facet normal -1 0 0
    outer loop
      vertex 33.5 -8 -1.47397
      vertex 33.5 -8.24944 -1.62888
      vertex 33.5 -8.40195 -1.72029
    endloop
  endfacet
  facet normal 0 0.85264 0.522499
    outer loop
      vertex 21.9572 -9.08126 -3.35738
      vertex 21.5 -9.62514 -2.46986
      vertex 32.9 -9.62514 -2.46986
    endloop
  endfacet
  facet normal -0 0.85264 0.522499
    outer loop
      vertex 21.9572 -9.08126 -3.35738
      vertex 32.9 -9.62514 -2.46986
      vertex 32.9 -9.08126 -3.35738
    endloop
  endfacet
  facet normal -1.54123e-07 0.85264 0.522499
    outer loop
      vertex 21.5 -9.62514 -2.46986
      vertex 21.9572 -9.08126 -3.35738
      vertex 21.5 -9.53848 -2.61128
    endloop
  endfacet
  facet normal 2.64819e-08 0.522499 -0.85264
    outer loop
      vertex 32.9 -9.62514 -2.46986
      vertex 23.0385 -8 -1.47397
      vertex 32.9 -8.40195 -1.72029
    endloop
  endfacet
  facet normal 0 0.522499 -0.85264
    outer loop
      vertex 21.5 -9.62514 -2.46986
      vertex 23.0385 -8 -1.47397
      vertex 32.9 -9.62514 -2.46986
    endloop
  endfacet
  facet normal 7.35034e-07 0.522498 -0.85264
    outer loop
      vertex 23.0385 -8 -1.47397
      vertex 21.5 -9.62514 -2.46986
      vertex 21.5 -9.53848 -2.41675
    endloop
  endfacet
  facet normal 0 0.522498 -0.85264
    outer loop
      vertex 32.9 -8.40195 -1.72029
      vertex 33.5 -8 -1.47397
      vertex 33.5 -8.40195 -1.72029
    endloop
  endfacet
  facet normal 0 0.522498 -0.85264
    outer loop
      vertex 33.5 -8 -1.47397
      vertex 32.9 -8.40195 -1.72029
      vertex 23.0385 -8 -1.47397
    endloop
  endfacet
endsolid OpenSCAD_Model
